<?xml version="1.0" encoding="UTF-8" standalone="no"?>
<!-- Created with Inkscape (http://www.inkscape.org/) -->

<svg
   width="1430.166"
   height="972.85529"
   id="svg3050"
   version="1.1"
   inkscape:version="1.4.2 (ebf0e940d0, 2025-05-08)"
   sodipodi:docname="can.svg"
   inkscape:export-filename="C:\Users\Will Pittenger\Documents\Images\Maps\Race Tracks\North &amp; Central America\Canada\Quebec\Circuit Gilles Villeneuve\ﾃ四e Notre-Dame (Circuit Gilles Villeneuve).png"
   inkscape:export-xdpi="90"
   inkscape:export-ydpi="90"
   viewbox="0 0 1430.166 972.85529"
   xmlns:inkscape="http://www.inkscape.org/namespaces/inkscape"
   xmlns:sodipodi="http://sodipodi.sourceforge.net/DTD/sodipodi-0.dtd"
   xmlns:xlink="http://www.w3.org/1999/xlink"
   xmlns="http://www.w3.org/2000/svg"
   xmlns:svg="http://www.w3.org/2000/svg"
   xmlns:rdf="http://www.w3.org/1999/02/22-rdf-syntax-ns#"
   xmlns:cc="http://creativecommons.org/ns#"
   xmlns:dc="http://purl.org/dc/elements/1.1/">
  <title
     id="title7203">ﾃ四e Notre-Dame (Circuit Gilles Villeneuve)</title>
  <sodipodi:namedview
     id="base"
     pagecolor="#ffffff"
     bordercolor="#ffffff"
     borderopacity="0.0"
     inkscape:pageopacity="0.0"
     inkscape:pageshadow="0"
     inkscape:zoom="9.1058083"
     inkscape:cx="276.85626"
     inkscape:cy="328.6913"
     inkscape:document-units="px"
     inkscape:current-layer="layer1"
     showgrid="false"
     inkscape:showpageshadow="false"
     showborder="false"
     inkscape:window-width="1920"
     inkscape:window-height="1048"
     inkscape:window-x="0"
     inkscape:window-y="0"
     inkscape:window-maximized="1"
     inkscape:pagecheckerboard="0"
     inkscape:deskcolor="#d1d1d1" />
  <defs
     id="defs3052">
    <pattern
       inkscape:collect="always"
       patternUnits="userSpaceOnUse"
       width="30.066020"
       height="5.1805778"
       id="Wavy-298"
       inkscape:stockid="Wavy">
      <path
         style="fill:#2050ff;stroke:none;"
         d="M 7.597,0.061 C 5.079,-0.187 2.656,0.302 -0.01,1.788 L -0.01,3.061 C 2.773,1.431 5.173,1.052 7.472,1.280 C 9.770,1.508 11.969,2.361 14.253,3.218 C 18.820,4.931 23.804,6.676 30.066,3.061 L 30.062,1.788 C 23.622,5.497 19.246,3.770 14.691,2.061 C 12.413,1.207 10.115,0.311 7.597,0.061 z "
         id="path5377" />
    </pattern>
    <clipPath
       clipPathUnits="userSpaceOnUse"
       id="clipPath5507">
      <rect
         style="fill:none;stroke:black;stroke-width:0.99458724;stroke-linecap:round;stroke-linejoin:miter;stroke-miterlimit:4;stroke-opacity:1;stroke-dasharray:none;stroke-dashoffset:0"
         id="rect5509"
         width="1430.166"
         height="972.85529"
         x="-2251.0493"
         y="-695.92975" />
    </clipPath>
    <clipPath
       clipPathUnits="userSpaceOnUse"
       id="clipPath5511">
      <rect
         style="fill:none;stroke:black;stroke-width:0.99458724;stroke-linecap:round;stroke-linejoin:miter;stroke-miterlimit:4;stroke-opacity:1;stroke-dasharray:none;stroke-dashoffset:0"
         id="rect5513"
         width="1430.166"
         height="972.85529"
         x="-2251.0493"
         y="-695.92975" />
    </clipPath>
    <clipPath
       clipPathUnits="userSpaceOnUse"
       id="clipPath5515">
      <rect
         style="fill:none;stroke:black;stroke-width:0.99458724;stroke-linecap:round;stroke-linejoin:miter;stroke-miterlimit:4;stroke-opacity:1;stroke-dasharray:none;stroke-dashoffset:0"
         id="rect5517"
         width="1430.166"
         height="972.85529"
         x="-2251.0493"
         y="-695.92975" />
    </clipPath>
    <clipPath
       clipPathUnits="userSpaceOnUse"
       id="clipPath5519">
      <rect
         style="fill:none;stroke:black;stroke-width:0.99458724;stroke-linecap:round;stroke-linejoin:miter;stroke-miterlimit:4;stroke-opacity:1;stroke-dasharray:none;stroke-dashoffset:0"
         id="rect5521"
         width="1430.166"
         height="972.85529"
         x="-2251.0493"
         y="-695.92975" />
    </clipPath>
    <clipPath
       clipPathUnits="userSpaceOnUse"
       id="clipPath5523">
      <rect
         style="fill:none;stroke:black;stroke-width:0.99458724;stroke-linecap:round;stroke-linejoin:miter;stroke-miterlimit:4;stroke-opacity:1;stroke-dasharray:none;stroke-dashoffset:0"
         id="rect5525"
         width="1430.166"
         height="972.85529"
         x="-2251.0493"
         y="-695.92975" />
    </clipPath>
    <clipPath
       clipPathUnits="userSpaceOnUse"
       id="clipPath5527">
      <rect
         style="fill:none;stroke:black;stroke-width:0.99458724;stroke-linecap:round;stroke-linejoin:miter;stroke-miterlimit:4;stroke-opacity:1;stroke-dasharray:none;stroke-dashoffset:0"
         id="rect5529"
         width="1430.166"
         height="972.85529"
         x="-2251.0493"
         y="-695.92975" />
    </clipPath>
    <clipPath
       clipPathUnits="userSpaceOnUse"
       id="clipPath5531">
      <rect
         style="fill:none;stroke:black;stroke-width:0.99458724;stroke-linecap:round;stroke-linejoin:miter;stroke-miterlimit:4;stroke-opacity:1;stroke-dasharray:none;stroke-dashoffset:0"
         id="rect5533"
         width="1430.166"
         height="972.85529"
         x="-2251.0493"
         y="-695.92975" />
    </clipPath>
    <clipPath
       clipPathUnits="userSpaceOnUse"
       id="clipPath5535">
      <rect
         style="fill:none;stroke:black;stroke-width:0.99458724;stroke-linecap:round;stroke-linejoin:miter;stroke-miterlimit:4;stroke-opacity:1;stroke-dasharray:none;stroke-dashoffset:0"
         id="rect5537"
         width="1430.166"
         height="972.85529"
         x="-2251.0493"
         y="-695.92975" />
    </clipPath>
    <clipPath
       clipPathUnits="userSpaceOnUse"
       id="clipPath5543">
      <rect
         style="fill:none;stroke:black;stroke-width:0.99458724;stroke-linecap:round;stroke-linejoin:miter;stroke-miterlimit:4;stroke-opacity:1;stroke-dasharray:none;stroke-dashoffset:0"
         id="rect5545"
         width="1430.166"
         height="972.85529"
         x="-2251.0493"
         y="-695.92975" />
    </clipPath>
    <clipPath
       clipPathUnits="userSpaceOnUse"
       id="clipPath5547">
      <rect
         style="fill:none;stroke:black;stroke-width:0.99458724;stroke-linecap:round;stroke-linejoin:miter;stroke-miterlimit:4;stroke-opacity:1;stroke-dasharray:none;stroke-dashoffset:0"
         id="rect5549"
         width="1430.166"
         height="972.85529"
         x="-2251.0493"
         y="-695.92975" />
    </clipPath>
    <clipPath
       clipPathUnits="userSpaceOnUse"
       id="clipPath5551">
      <rect
         style="fill:none;stroke:black;stroke-width:0.99458724;stroke-linecap:round;stroke-linejoin:miter;stroke-miterlimit:4;stroke-opacity:1;stroke-dasharray:none;stroke-dashoffset:0"
         id="rect5553"
         width="1430.166"
         height="972.85529"
         x="-2251.0493"
         y="-695.92975" />
    </clipPath>
    <clipPath
       clipPathUnits="userSpaceOnUse"
       id="clipPath5555">
      <rect
         style="fill:none;stroke:black;stroke-width:0.99458724;stroke-linecap:round;stroke-linejoin:miter;stroke-miterlimit:4;stroke-opacity:1;stroke-dasharray:none;stroke-dashoffset:0"
         id="rect5557"
         width="1430.166"
         height="972.85529"
         x="-2251.0493"
         y="-695.92975" />
    </clipPath>
    <clipPath
       clipPathUnits="userSpaceOnUse"
       id="clipPath5559">
      <rect
         style="fill:none;stroke:black;stroke-width:0.99458724;stroke-linecap:round;stroke-linejoin:miter;stroke-miterlimit:4;stroke-opacity:1;stroke-dasharray:none;stroke-dashoffset:0"
         id="rect5561"
         width="1430.166"
         height="972.85529"
         x="-2251.0493"
         y="-695.92975" />
    </clipPath>
    <clipPath
       clipPathUnits="userSpaceOnUse"
       id="clipPath5563">
      <rect
         style="fill:none;stroke:black;stroke-width:0.99458724;stroke-linecap:round;stroke-linejoin:miter;stroke-miterlimit:4;stroke-opacity:1;stroke-dasharray:none;stroke-dashoffset:0"
         id="rect5565"
         width="1430.166"
         height="972.85529"
         x="-2251.0493"
         y="-695.92975" />
    </clipPath>
    <clipPath
       clipPathUnits="userSpaceOnUse"
       id="clipPath5567">
      <rect
         style="fill:none;stroke:black;stroke-width:0.99458724;stroke-linecap:round;stroke-linejoin:miter;stroke-miterlimit:4;stroke-opacity:1;stroke-dasharray:none;stroke-dashoffset:0"
         id="rect5569"
         width="1430.166"
         height="972.85529"
         x="-2251.0493"
         y="-695.92975" />
    </clipPath>
    <clipPath
       clipPathUnits="userSpaceOnUse"
       id="clipPath5571">
      <rect
         style="fill:none;stroke:black;stroke-width:0.99458724;stroke-linecap:round;stroke-linejoin:miter;stroke-miterlimit:4;stroke-opacity:1;stroke-dasharray:none;stroke-dashoffset:0"
         id="rect5573"
         width="1430.166"
         height="972.85529"
         x="-2251.0493"
         y="-695.92975" />
    </clipPath>
    <clipPath
       clipPathUnits="userSpaceOnUse"
       id="clipPath5575">
      <rect
         style="fill:none;stroke:black;stroke-width:0.99458724;stroke-linecap:round;stroke-linejoin:miter;stroke-miterlimit:4;stroke-opacity:1;stroke-dasharray:none;stroke-dashoffset:0"
         id="rect5577"
         width="1430.166"
         height="972.85529"
         x="-2251.0493"
         y="-695.92975" />
    </clipPath>
    <clipPath
       clipPathUnits="userSpaceOnUse"
       id="clipPath5579">
      <rect
         style="fill:none;stroke:black;stroke-width:0.99458724;stroke-linecap:round;stroke-linejoin:miter;stroke-miterlimit:4;stroke-opacity:1;stroke-dasharray:none;stroke-dashoffset:0"
         id="rect5581"
         width="1430.166"
         height="972.85529"
         x="-2251.0493"
         y="-695.92975" />
    </clipPath>
    <clipPath
       clipPathUnits="userSpaceOnUse"
       id="clipPath5583">
      <rect
         style="fill:none;stroke:black;stroke-width:0.99458724;stroke-linecap:round;stroke-linejoin:miter;stroke-miterlimit:4;stroke-opacity:1;stroke-dasharray:none;stroke-dashoffset:0"
         id="rect5585"
         width="1430.166"
         height="972.85529"
         x="-2251.0493"
         y="-695.92975" />
    </clipPath>
    <clipPath
       clipPathUnits="userSpaceOnUse"
       id="clipPath5587">
      <rect
         style="fill:none;stroke:black;stroke-width:0.99458724;stroke-linecap:round;stroke-linejoin:miter;stroke-miterlimit:4;stroke-opacity:1;stroke-dasharray:none;stroke-dashoffset:0"
         id="rect5589"
         width="1430.166"
         height="972.85529"
         x="-2251.0493"
         y="-695.92975" />
    </clipPath>
    <clipPath
       clipPathUnits="userSpaceOnUse"
       id="clipPath5591">
      <rect
         style="fill:none;stroke:black;stroke-width:0.99458724;stroke-linecap:round;stroke-linejoin:miter;stroke-miterlimit:4;stroke-opacity:1;stroke-dasharray:none;stroke-dashoffset:0"
         id="rect5593"
         width="1430.166"
         height="972.85529"
         x="-2251.0493"
         y="-695.92975" />
    </clipPath>
    <clipPath
       clipPathUnits="userSpaceOnUse"
       id="clipPath9716">
      <path
         id="path9718"
         d="M 871.13547,932.36346 C 1314.8756,1345.252 1758.6155,1758.1404 2202.3556,2171.029 2375.7787,1984.6474 2549.2018,1798.266 2722.6249,1611.8845 2278.8848,1198.996 1835.1448,786.10758 1391.4047,373.21904 1217.9816,559.60052 1044.5586,745.98194 871.13547,932.36346 z"
         style="fill:#6a6a6a;fill-opacity:1;fill-rule:nonzero;stroke:#010101;stroke-width:0.9426257;stroke-linecap:round;stroke-linejoin:round;stroke-miterlimit:4;stroke-opacity:1;stroke-dasharray:none;stroke-dashoffset:0" />
    </clipPath>
    <clipPath
       clipPathUnits="userSpaceOnUse"
       id="clipPath3490">
      <rect
         style="fill:#006a00;fill-opacity:1;fill-rule:nonzero;stroke:none"
         id="rect3492"
         width="1511.7875"
         height="1003.7479"
         x="683.1405"
         y="104.1039"
         transform="matrix(-0.7183395,0.6956928,-0.6956928,-0.7183395,0,0)" />
    </clipPath>
    <pattern
       inkscape:collect="always"
       xlink:href="#pattern4256"
       id="pattern4264"
       patternTransform="matrix(-0.7760302,9.7935943e-4,-9.7935943e-4,-0.7760302,-1599.8308,380.49)" />
    <pattern
       patternUnits="userSpaceOnUse"
       width="10.793857"
       height="10.773841"
       patternTransform="matrix(-0.5630234,-0.534067,0.534067,-0.5630234,1593.7246,910.57043)"
       id="pattern4256">
      <g
         id="g4248"
         transform="matrix(0.5878912,6.0987118e-3,-6.0987118e-3,0.5878912,-595.3809,-720.7077)">
        <rect
           style="opacity:1;fill:black;fill-opacity:1;stroke:none;stroke-width:0.5;stroke-linecap:round;stroke-linejoin:round;stroke-miterlimit:4;stroke-dasharray:none;stroke-dashoffset:0;stroke-opacity:1"
           id="rect4250"
           width="18.172573"
           height="18.095789"
           x="1025.5348"
           y="1215.2814" />
        <rect
           style="opacity:1;fill:white;fill-opacity:1;stroke:none;stroke-width:0.5;stroke-linecap:round;stroke-linejoin:round;stroke-miterlimit:4;stroke-dasharray:none;stroke-dashoffset:0;stroke-opacity:1"
           id="rect4252"
           width="9.0746527"
           height="9.0746527"
           x="1025.5348"
           y="1215.2814" />
        <rect
           style="opacity:1;fill:white;fill-opacity:1;stroke:none;stroke-width:0.5;stroke-linecap:round;stroke-linejoin:round;stroke-miterlimit:4;stroke-dasharray:none;stroke-dashoffset:0;stroke-opacity:1"
           id="rect4254"
           width="9.0746527"
           height="9.0746527"
           x="1034.6412"
           y="1224.3444" />
      </g>
    </pattern>
  </defs>
  <metadata
     id="metadata3055">
    <rdf:RDF>
      <cc:Work
         rdf:about="">
        <dc:format>image/svg+xml</dc:format>
        <dc:type
           rdf:resource="http://purl.org/dc/dcmitype/StillImage" />
        <dc:title>ﾃ四e Notre-Dame (Circuit Gilles Villeneuve)</dc:title>
        <dc:date>September 25, 2009</dc:date>
        <dc:creator>
          <cc:Agent>
            <dc:title>Will Pittenger</dc:title>
          </cc:Agent>
        </dc:creator>
        <dc:source>This image replaces one of my older images with older techniques</dc:source>
        <dc:subject>
          <rdf:Bag>
            <rdf:li>Montreal</rdf:li>
            <rdf:li>Quebec</rdf:li>
            <rdf:li>Canada</rdf:li>
            <rdf:li>ﾃ四e Notre-Dame. Circuit Gilles Villeneuve</rdf:li>
            <rdf:li>Gilles Villeneuve</rdf:li>
            <rdf:li>Wall of Champions</rdf:li>
            <rdf:li>Quebec Wall</rdf:li>
            <rdf:li>Virage Senna</rdf:li>
            <rdf:li>Pont de la Concorde</rdf:li>
            <rdf:li>Pits Hairpin</rdf:li>
            <rdf:li>L'Epingle</rdf:li>
            <rdf:li>Virage Du Casino</rdf:li>
            <rdf:li>Doit du Casino</rdf:li>
            <rdf:li>Formula 1</rdf:li>
            <rdf:li>F1</rdf:li>
            <rdf:li>Grand Am</rdf:li>
            <rdf:li>Daytona Prototypes</rdf:li>
            <rdf:li>NASCAR</rdf:li>
            <rdf:li>Grand Touring</rdf:li>
          </rdf:Bag>
        </dc:subject>
        <dc:description>Created in Inkscape</dc:description>
        <cc:license
           rdf:resource="http://creativecommons.org/licenses/by-sa/3.0/" />
      </cc:Work>
      <cc:License
         rdf:about="http://creativecommons.org/licenses/by-sa/3.0/">
        <cc:permits
           rdf:resource="http://creativecommons.org/ns#Reproduction" />
        <cc:permits
           rdf:resource="http://creativecommons.org/ns#Distribution" />
        <cc:requires
           rdf:resource="http://creativecommons.org/ns#Notice" />
        <cc:requires
           rdf:resource="http://creativecommons.org/ns#Attribution" />
        <cc:permits
           rdf:resource="http://creativecommons.org/ns#DerivativeWorks" />
        <cc:requires
           rdf:resource="http://creativecommons.org/ns#ShareAlike" />
      </cc:License>
    </rdf:RDF>
  </metadata>
  <g
     id="layer1"
     inkscape:groupmode="layer"
     inkscape:label="Layer 1"
     transform="translate(2251.0493,695.92975)">
    <g
       id="g5452"
       style="opacity:0.67982453;stroke:#0050ff;stroke-opacity:1"
       clip-path="url(#clipPath5591)"
       inkscape:export-xdpi="90"
       inkscape:export-ydpi="90">
      <path
         d="m -2300.25,-746.8125 -1.2812,196.0625 70.5,-14.09375 c 35.1515,-7.02718 65.412,-30.07485 99.9374,-39.71875 57.1535,-15.96455 175.5626,-29.5 175.5626,-29.5 74.6274,-12.53974 152.1,-2.85805 226.8437,8.96875 56.0926,8.87561 164,46.15625 164,46.15625 65.6954,18.48935 124.0739,58.70546 179.4063,98.65625 39.2145,28.31344 106.375,98.6875 106.375,98.6875 27.0243,25.07128 52.794,51.7523 75.5937,80.71875 C -1172.0199,-261.11851 -1120,-174 -1120,-174 c 30.3927,46.2844 65.1557,89.836448 102.5,130.71875 C -990.19021,-13.384137 -929.0625,40 -929.0625,40 c 28.45738,26.798204 64.98606,43.459441 97.375,65.34375 10.71056,7.23683 32.0625,21.8125 32.0625,21.8125 l -6.40625,125.5625 -1394.24995,-685.5625 -34.5938,78.15625 1462.15625,718.90625 48.6875,-64.0625 -20.5,-320.375 -75.59375,-26.90625 -111.5,-111.5 c -27.67093,-27.67093 -45.44993,-63.73285 -69.1875,-94.84375 -24.5223,-32.13939 -52.8351,-61.4223 -75.625,-94.8125 0,0 -68.4755,-84.42124 -90.9687,-133.28125 -6.8451,-14.8691 -18.8123,-32.17634 -12.8126,-47.40625 0,0 6.8874,-30.70421 16.6563,-42.28125 12.234,-14.49842 29.7747,-30.94631 48.6875,-29.46875 0,0 54.7351,3.52614 82,6.40625 45.00056,4.7536 90.75432,6.60216 134.5625,17.9375 l 108.9375,28.1875 3.84375,-188.375 -1514.71875,-10.25 z m 35.9062,436.96875 -51.2812,79.46875 c 0,0 41.0237,85.05277 75.625,115.3125 42.4299,37.106037 98.2452,57.779469 152.5,73.0625 0,0 60.3359,18.271864 90.9688,25.625 106.3048,25.5174992 291.1234,51.129452 357.5373,83.284514 l 484.4001,234.527986 161.4688,-9 -1271.2188,-602.28125 z"
         id="path3908"
         sodipodi:nodetypes="ccssssssssssssccccccccssssssssscccccssssccc"
         style="stroke:#0050ff;stroke-opacity:1" />
      <use
         x="0"
         y="0"
         xlink:href="#path3908"
         id="use3913"
         style="fill:#bdf0ff;fill-opacity:1;stroke:#0050ff;stroke-opacity:1"
         width="744.09448"
         height="1052.3622" />
      <use
         height="1052.3622"
         width="744.09448"
         x="0"
         y="0"
         xlink:href="#path3908"
         id="use3915"
         style="fill:url(#Wavy-298);fill-opacity:1;stroke:#0050ff;stroke-opacity:1" />
    </g>
    <path
       sodipodi:nodetypes="csssssssssssssssssssssssssssssssssssssssssssssssssssssssssssssssssssssssss"
       id="path3074"
       d="m -1872.3538,-319.06917 c -34.2829,-15.93694 -68.2998,-32.46016 -102.3173,-48.96169 -18.6058,-9.0255 -37.6323,-17.38765 -55.5527,-27.61941 -13.7792,-7.86733 -27.3166,-16.58756 -39.546,-26.67784 -19.4701,-16.06446 -37.1384,-34.41579 -55.5527,-51.7864 -7.4266,-7.00562 -13.9853,-15.26218 -21.97,-21.34227 -3.4188,-2.60329 -8.0959,-4.87039 -12.2404,-4.70786 -6.5267,0.25595 -13.7673,2.83426 -19.773,5.96328 -6.444,3.35735 -11.0936,10.96462 -17.576,13.49585 -4.5026,1.75815 -11.1942,1.46467 -15.379,-0.62771 -4.1847,-2.09238 -7.7309,-7.40337 -9.7295,-11.92657 -1.9769,-4.47404 -2.6761,-10.16739 -2.197,-15.06513 0.4624,-4.72721 2.2706,-9.88533 5.0217,-13.80971 4.363,-6.22366 10.202,-11.8911 16.3206,-16.63442 16.6883,-12.93729 32.2451,-11.13046 50.1002,-22.4074 5.998,-3.78819 12.7547,-6.43503 19.4591,-8.788 15.0564,-5.28422 30.2397,-10.68263 45.8232,-14.12356 33.6921,-7.43944 68.173,-14.0386 102.0035,-18.51756 3.3093,-0.43813 7.1809,1.37374 9.4157,3.76628 6.6578,7.12779 10.073,18.36903 17.2621,24.7947 4.6328,4.14085 11.7933,6.6161 18.2037,6.90486 28.4277,1.28053 57.9031,1.03263 86.3107,-2.197 16.6832,-1.8967 32.4245,-10.4258 48.9617,-13.182 9.8268,-1.6378 20.3175,-1.57194 30.1302,0 11.7388,1.88049 24.3221,4.29032 34.5243,10.35728 25.1591,14.96145 47.9381,34.85045 71.5594,52.72797 10.7983,8.17261 32.4355,24.37283 43.6995,31.42242 4.115,2.57535 9.6889,3.66347 14.4375,3.45242 4.6672,-0.20743 10.1652,-1.88467 13.8097,-4.70785 3.7835,-2.93086 6.2351,-8.07624 8.4741,-12.55428 2.2596,-4.51919 5.7039,-8.92447 9.0217,-12.43742 5.5748,-5.90276 13.7849,-11.29308 21.6561,-13.80971 7.5078,-2.40047 16.5827,-2.43256 24.4809,-0.94157 12.6071,2.37991 13.1837,1.28698 25.0351,6.55428 9.8047,4.35764 14.8814,8.46477 23.9333,14.32056 33.3188,21.55439 66.87,42.92377 99.1788,65.90997 15.1882,10.80573 28.9398,23.56548 43.3122,35.46583 11.7823,9.75578 24.2152,18.84412 35.152,29.50256 17.8334,17.37945 35.1991,35.48928 51.1587,54.61111 17.8324,21.36572 33.4334,44.60153 50.2171,66.85153 6.0232,7.98489 12.853,15.49723 18.2037,23.85313 2.2865,3.57066 5.0682,8.11797 4.7079,11.92656 -0.3721,3.93321 -4.7509,7.44914 -6.9049,11.29885 -2.7631,4.93829 -6.3645,9.74128 -7.8464,15.06514 -1.3428,4.82419 -1.8679,10.53817 -0.6277,15.37899 2.003,7.81807 6.0065,15.57635 10.3573,22.5977 10.8189,17.45949 22.3141,34.76145 35.1519,50.84483 24.4065,30.576691 50.0673,60.349004 76.5811,89.135375 17.4262,18.9198867 36.0479,36.909017 55.2389,53.983397 9.2653,8.243415 19.8214,15.037407 30.13023,21.969988 13.6489,9.178743 27.32507,18.486651 41.74298,26.363984 17.17703,9.3848 35.23578,17.223946 53.04182,25.422416 11.27803,5.19276 23.10078,9.3199 34.21041,14.75128 3.01393,1.47348 7.40634,3.27737 8.16028,5.96328 0.91996,3.27737 -1.52015,8.23656 -3.13857,11.92656 -0.99705,2.27328 -2.54893,5.02121 -4.70785,5.96328 -3.59513,1.56878 -8.56374,2.51942 -12.55428,1.56929 -9.19145,-2.18844 -18.63325,-6.27158 -26.9917,-10.98499 -5.55587,-3.13301 -9.37884,-9.02275 -14.75127,-12.55428 -9.58808,-6.30266 -19.6527,-12.38443 -30.13027,-16.94828 -6.57533,-2.8641 -13.95946,-3.81886 -21.02842,-5.33557 -20.2366,-4.34195 -40.84406,-7.121208 -60.88826,-12.240419 -38.1239,-9.736684 -75.9055,-25.02038 -113.6162,-36.327266 -24.7469,-7.419912 -49.3476,-15.409384 -73.7564,-23.853129 -11.5801,-4.005915 -23.0945,-8.340351 -34.2104,-13.49585 -42.3444,-19.6392009 -84.0484,-42.728222 -126.1705,-62.88825 -75.2604,-36.020367 -150.9307,-73.199826 -225.977,-109.652936 -35.0128,-17.00719 -68.9599,-39.70588 -102.2005,-58.72797 -2.9575,-1.69247 -4.062,-6.09597 -4.394,-9.41571 -0.505,-5.04978 2.5876,-10.76154 1.8831,-15.69285 -0.4463,-3.12435 -2.6944,-6.59603 -5.3355,-8.47414 -6.7746,-4.8175 -15.1899,-7.91499 -22.9116,-11.6127 -21.9901,-10.53047 -44.0459,-20.94056 -66.2238,-31.07184 -23.8544,-10.89713 -48.0927,-20.95865 -71.8733,-32.01341 z"
       style="fill:none"
       clip-path="url(#clipPath5587)" />
    <path
       sodipodi:nodetypes="cssssssssss"
       id="path3076"
       d="m -1700.1515,-203.12425 c -6.9143,-3.89891 -16.4926,-10.28201 -22.6895,-13.03991 -14.0674,-6.26062 -28.825,-11.83901 -41.8999,-19.45913 -3.3502,-1.95252 -4.7582,-6.30884 -7.3756,-9.25878 -6.8507,-7.7212 -13.3547,-15.98953 -21.0285,-22.75463 -4.2527,-3.74911 -9.5911,-6.31671 -14.7512,-8.788 -56.8789,-27.2405 -114.3935,-53.25404 -171.3659,-80.34738 -21.1257,-10.0464 -42.3682,-19.94865 -62.9284,-31.07184 -18.9858,-10.27139 -36.8286,-22.62986 -55.7096,-33.11191 -25.6867,-14.26034 -51.9558,-27.0025 -78.0538,-40.5116 -10.9895,-5.68848 -22.7075,-10.87419 -33.948,-13.84639"
       style="fill:none"
       clip-path="url(#clipPath5583)" />
    <use
       style="stroke:black;stroke-width:5;stroke-miterlimit:4;stroke-opacity:1;stroke-dasharray:none"
       id="use3854"
       xlink:href="#path3076"
       y="0"
       x="0"
       width="744.09448"
       height="1052.3622" />
    <path
       sodipodi:nodetypes="csss"
       id="path3872"
       d="m -1000.388,-700.13011 c -15.8083,85.36495 -29.8005,171.23614 -47.425,256.09486 -2.4614,11.85103 -4.3782,25.60752 -12.8326,34.0344 -48.6415,48.48309 -105.6368,91.13034 -158.4552,136.69551"
       style="fill:none"
       clip-path="url(#clipPath5579)" />
    <path
       sodipodi:nodetypes="cssssssssssss"
       id="path3874"
       d="m -810.68809,-66.309274 c -26.59518,-27.711062 -54.6231,-54.156016 -79.78555,-83.133186 -38.62878,-44.48505 -75.60722,-90.58876 -111.58816,-137.25346 -18.5113,-24.00781 -36.1813,-49.00995 -51.8885,-74.76408 -4.9366,-8.09428 -5.9105,-18.23447 -10.043,-26.78116 -4.0507,-8.37752 -14.1236,-15.85775 -14.5064,-23.99146 -0.3611,-7.67461 9.2615,-15.25468 12.2747,-23.43351 2.1942,-5.95567 5.7517,-13.92904 3.3476,-18.96999 -3.3613,-7.04777 -13.1225,-15.08403 -20.6438,-17.29617 -5.1254,-1.50746 -13.447,2.11714 -17.2961,6.13735 -4.52,4.72086 -9.4278,14.18534 -7.8112,20.08587 2.103,7.67603 12.2772,14.145 18.97,20.64381 6.1398,5.96187 13.0186,11.15882 19.5279,16.73823"
       style="fill:none"
       clip-path="url(#clipPath5575)" />
    <path
       sodipodi:nodetypes="cssss"
       id="path3876"
       d="m -1047.255,-351.13809 c -10.322,-11.99573 -19.4195,-19.5988 -27.8971,-30.40778 -6.4008,-8.16101 -15.3268,-17.81914 -16.1803,-26.78116 -0.6343,-6.66033 6.9347,-14.10827 11.7168,-20.08587 4.145,-5.18122 11.5772,-7.67168 15.0644,-13.39058"
       style="fill:none" />
    <path
       sodipodi:nodetypes="cssssssss"
       id="path3878"
       d="m -1090.1637,-403.42631 c -2.8247,-7.05266 -39.0391,-48.66464 -54.173,-71.85363 -7.9277,-12.14726 -16.8855,-25.35384 -19.528,-39.05586 -2.3789,-12.33522 -1.9671,-28.9021 4.4636,-39.05586 7.7038,-12.16388 24.8925,-21.03156 39.0558,-23.43351 17.6393,-2.99147 37.1064,3.85694 56.352,7.25323 18.6944,3.299 37.5866,5.45812 56.3521,8.36911 48.37344,7.50391 97.15181,13.3467 145.06461,22.87558 18.48216,3.67572 36.08017,11.15881 54.12026,16.73822"
       style="fill:none"
       clip-path="url(#clipPath5571)" />
    <path
       sodipodi:nodetypes="cssss"
       id="path3880"
       d="m -805.10868,-542.23284 c -39.98576,-8.92705 -79.55739,-20.36716 -119.95729,-26.78116 -49.80054,-7.90648 -100.36583,-12.32372 -150.64403,-16.18029 -15.1869,-1.1649 -31.4326,-2.51565 -45.7512,1.11588 -11.3467,2.87778 -23.2067,15.48239 -31.8025,23.43352"
       style="fill:none"
       clip-path="url(#clipPath5567)" />
    <path
       id="path3888"
       d="m -1374.2084,-134.37806 -87.7632,-86.52877"
       style="fill:none"
       sodipodi:nodetypes="cc" />
    <path
       sodipodi:nodetypes="css"
       id="path3890"
       d="m -822.40485,-78.583973 c -35.8942,47.238994 -74.65122,92.819024 -107.68259,141.716983 -9.55812,14.149359 -13.39058,31.616647 -20.08587,47.42497"
       style="fill:none"
       clip-path="url(#clipPath5563)" />
    <path
       sodipodi:nodetypes="csssssssssssssss"
       id="path3892"
       d="m -1466.2686,-119.31366 c 10.9728,8.18313 20.9223,18.45131 32.9185,24.549402 10.3214,5.246708 22.8574,8.99904 34.0344,9.484995 5.9332,0.257966 11.2433,-6.777161 17.2962,-7.253232 10.4993,-0.825791 21.5537,2.923849 32.3605,3.347645 8.1632,0.320125 17.4058,2.285832 24.5494,-1.115881 16.2899,-7.757104 30.6698,-21.343669 45.7512,-32.360569 11.1418,-8.13907 22.4587,-16.13066 32.9185,-25.10734 14.4616,-12.41105 26.0315,-32.45721 41.8455,-39.05586 10.0373,-4.18821 25.0306,1.52869 35.7083,6.69529 18.1493,8.78192 37.1427,20.14362 50.7726,35.15027 23.1942,25.53706 38.1303,58.967928 59.6997,86.480839 20.2762,25.863434 41.9818,51.1962837 65.83698,73.648195 17.24648,16.231989 38.18553,28.443415 57.46791,42.403507 21.81927,15.796753 43.65925,31.582345 65.83703,46.867029 19.10985,13.1703 38.6839,25.66528 58.02585,38.49792"
       style="fill:none"
       clip-path="url(#clipPath5559)" />
    <path
       sodipodi:nodetypes="csssssssss"
       id="path3894"
       d="m -1257.5987,-18.884299 c -7.4392,-7.439212 -13.3888,-17.205134 -22.3177,-22.317635 -14.1327,-8.0921 -34.3993,-7.812186 -46.867,-17.296167 -9.292,-7.068265 -15.3262,-20.72214 -18.4121,-32.360571 -3.4234,-12.910968 0.3713,-27.674718 -1.1158,-41.287628 -0.9306,-8.51875 -4.0916,-16.73823 -6.1374,-25.10734 -2.5637,-10.48768 -14.4468,-16.04897 -21.7597,-23.99145 -20.7701,-22.55828 -41.2975,-45.35565 -62.4894,-67.51085 -15.6322,-16.34272 -30.6924,-33.45887 -47.9829,-47.98292 -38.5035,-32.34299 -79.5995,-61.74545 -119.3993,-92.61818"
       style="fill:none" />
    <path
       sodipodi:nodetypes="cccccc"
       id="path3896"
       d="m -1204.5943,-189.33524 -29.5709,-34.8713 -60.8156,-74.76408 -52.4464,-48.54086 -95.4079,-82.0173 -30.1288,39.6138"
       style="fill:none" />
    <path
       sodipodi:nodetypes="cssss"
       id="path3898"
       d="m -1334.5946,-334.12089 c -15.6223,14.1345 -31.2125,28.30473 -46.867,42.4035 -14.2883,12.86837 -27.4826,27.40854 -42.9615,38.49792 -9.4424,6.76473 -23.5593,7.89632 -31.8026,15.06441 -4.5893,3.99073 -4.5184,10.84704 -6.7502,16.98439"
       style="fill:none" />
    <path
       sodipodi:nodetypes="csssss"
       id="path3886"
       d="m -1222.4484,-271.63151 c -43.8914,36.08018 -89.7686,71.04908 -131.1162,109.35641 -9.239,8.55971 -14.58,21.02502 -20.0858,32.36057 -3.9791,8.19238 -7.2598,17.34865 -8.3691,26.22322 -0.7505,6.003849 3.5825,12.374625 2.7897,18.412047 -1.625,12.374626 -6.6953,24.549398 -10.043,36.824097"
       style="fill:none" />
    <path
       id="path3902"
       d="m -1415.496,-346.39559 -116.6096,-93.73407"
       style="fill:none" />
    <path
       id="path3904"
       d="m -1479.6592,-397.16821 -54.6782,59.69967"
       style="fill:none" />
    <path
       sodipodi:nodetypes="csssssss"
       id="path3906"
       d="m -1506.1614,-525.80845 c -22.6896,-11.99573 -46.2362,-26.5799 -70.2308,-36.30104 -23.0584,-9.34184 -46.581,-18.05999 -70.5795,-24.54939 -30.6797,-8.29603 -62.0745,-14.55475 -93.4551,-19.80691 -34.7354,-5.81367 -69.8111,-10.58404 -104.8929,-13.39058 -25.3618,-2.02894 -51.1083,-2.80452 -76.4379,-1.11588 -22.0954,1.47303 -34.0183,5.58532 -55.7941,9.90345 -11.0498,2.19118 -31.3144,7.137 -42.6825,9.62448"
       style="fill:none"
       clip-path="url(#clipPath5555)" />
    <use
       style="stroke:black;stroke-width:15;stroke-miterlimit:4;stroke-opacity:1;stroke-dasharray:none;"
       id="use3856"
       xlink:href="#path3074"
       y="0"
       x="0"
       width="744.09448"
       height="1052.3622" />
    <path
       style="fill:none"
       d="m -1237.8977,300.14068 c -46.56,-24.77504 -92.7337,-50.29875 -139.68,-74.32512 -79.919,-40.90132 -158.822,-84.54187 -240.9159,-120.45796 -54.5959,-23.885728 -112.6796,-38.788125 -170.4352,-53.180905 -75.9442,-18.925377 -155.472,-33.522768 -230.6642,-54.4623736 -59.789,-16.6501114 -115.9772,-38.7307684 -172.9981,-64.0733814 -35.2448,-15.664352 -69.1993,-34.17247 -103.7989,-51.25871"
       id="path5457"
       sodipodi:nodetypes="cssssss"
       clip-path="url(#clipPath5551)" />
    <path
       style="fill:none"
       d="m -2311.7676,-100.95869 c 78.5967,31.609536 155.9495,66.923177 235.79,94.8286085 52.1506,18.2274045 106.6334,29.6429445 160.1835,43.5698995 63.0634,16.401112 128.4237,25.940069 189.6572,47.414302 61.7874,21.66851 120.0215,53.79023 179.4055,82.01393 96.1008,45.67427 191.3658,93.11998 287.0487,139.67997"
       id="path5459"
       sodipodi:nodetypes="csssss"
       clip-path="url(#clipPath5547)" />
    <path
       style="fill:none"
       d="m -1641.0795,93.343843 c -39.9391,-14.950456 -78.8094,-33.830763 -119.657,-45.652284 -41.8071,-12.099208 -85.3087,-18.596851 -128.1468,-26.910821 -22.0896,-4.287128 -44.9048,-5.739907 -67.1169,-9.370732"
       id="path5461"
       sodipodi:nodetypes="csss"
       clip-path="url(#clipPath5543)" />
    <path
       style="fill:none"
       d="m -1872.9573,110.42891 c -126.0206,56.19101 -256.8419,113.46445 -383.0665,169.20829"
       id="path5609" />
    <path
       style="fill:none"
       d="m -2266.2755,210.43795 c 34.5996,-13.24183 72.1186,-21.03485 103.7989,-39.7255 62.0804,-36.62604 118.3221,-84.149707 177.4832,-126.224561"
       id="path5465"
       sodipodi:nodetypes="css"
       clip-path="url(#clipPath5535)" />
    <path
       style="fill:none"
       d="M -2252.1794,190.5752 -2094.6369,2.2969476"
       id="path5467"
       clip-path="url(#clipPath5531)"
       sodipodi:nodetypes="cc" />
    <path
       style="fill:none"
       d="m -2260.5089,16.295602 53.8216,-61.510447"
       id="path5469"
       clip-path="url(#clipPath5527)" />
    <path
       style="fill:none"
       d="m -2270.1199,-67.640528 c 4.4851,0 96.7182,35.21726 144.1651,55.103108 29.0466,12.17394233 57.8802,24.884494 87.1398,36.521827 27.125,10.78835 55.1684,19.382263 82.0139,30.755224 16.5108,6.994742 33.5753,13.992086 48.0551,24.347885 19.2655,13.778508 35.825,31.642404 53.1809,48.055034 21.9425,20.74993 42.9164,42.52463 64.7141,63.43265 20.0636,19.24464 39.7755,38.96059 60.8697,57.02531 19.0584,16.32133 39.7255,30.75522 59.5882,46.13283"
       id="path5481"
       sodipodi:nodetypes="cssssssss"
       clip-path="url(#clipPath5507)" />
    <path
       style="fill:none;stroke:none"
       d="m -2038.1548,-562.32912 c 50.4397,-13.24132 44.7322,-2.5556 63.6888,17.78976 12.8195,13.75859 93.0732,9.70214 104.3402,9.01232 9.7617,-0.59766 70.4686,-7.58337 78.0233,-14.11721"
       id="path6826"
       sodipodi:nodetypes="csss" />
    <path
       style="fill:none;stroke:aqua;stroke-width:5;stroke-linecap:round;stroke-miterlimit:4;stroke-opacity:1;stroke-dasharray:5, 10;stroke-dashoffset:0"
       d="m -895.74777,112.04673 c 11.27803,5.19276 23.10078,9.3199 34.21041,14.75128 3.01393,1.47348 7.40634,3.27737 8.16028,5.96328 0.91996,3.27737 -1.52015,8.23656 -3.13857,11.92656 -0.99705,2.27328 -2.54893,5.02121 -4.70785,5.96328 -3.59513,1.56878 -8.56374,2.51942 -12.55428,1.56929 -9.19145,-2.18844 -18.63325,-6.27158 -26.9917,-10.98499 -5.55587,-3.13301 -9.37884,-9.02275 -14.75127,-12.55428 -9.58808,-6.30266 -19.6527,-12.38443 -30.13027,-16.94828 -6.57533,-2.8641 -13.95946,-3.81886 -21.02842,-5.33557 -20.2366,-4.34195 -40.84406,-7.121208 -60.88826,-12.240419 -38.1239,-9.736684 -75.9055,-25.02038 -113.6162,-36.327266 -24.7469,-7.419912 -49.3476,-15.409384 -73.7564,-23.853129 -11.5801,-4.005915 -23.0945,-8.340351 -34.2104,-13.49585 -42.3444,-19.6392009 -84.0484,-42.728222 -126.1705,-62.88825 -75.2604,-36.020367 -150.9307,-73.199826 -225.977,-109.652936 -35.0128,-17.00719 -68.9599,-39.70588 -102.2005,-58.72797 -2.9575,-1.69247 -4.062,-6.09597 -4.394,-9.41571 -0.505,-5.04978 2.5876,-10.76154 1.8831,-15.69285 -0.4463,-3.12435 -2.6944,-6.59603 -5.3355,-8.47414 -6.7746,-4.8175 -15.1899,-7.91499 -22.9116,-11.6127 -21.9901,-10.53047 -44.0459,-20.94056 -66.2238,-31.07184 -23.8544,-10.89713 -48.0927,-20.95865 -71.8733,-32.01341 -34.2829,-15.93694 -68.2998,-32.46016 -102.3173,-48.96169"
       id="path6893" />
    <path
       style="fill:none;stroke:red;stroke-width:5;stroke-linecap:round;stroke-miterlimit:4;stroke-opacity:1;stroke-dasharray:5, 10;stroke-dashoffset:0"
       d="m -1775.175,-582.51873 c 11.7388,1.88049 24.3221,4.29032 34.5243,10.35728 25.1591,14.96145 47.9381,34.85045 71.5594,52.72797 10.7983,8.17261 32.4355,24.37283 43.6995,31.42242 4.115,2.57535 9.6889,3.66347 14.4375,3.45242 4.6672,-0.20743 10.1652,-1.88467 13.8097,-4.70785 3.7835,-2.93086 6.2351,-8.07624 8.4741,-12.55428 2.2596,-4.51919 5.7039,-8.92447 9.0217,-12.43742 5.5748,-5.90276 13.7849,-11.29308 21.6561,-13.80971 7.5078,-2.40047 16.5827,-2.43256 24.4809,-0.94157 12.6071,2.37991 13.1837,1.28698 25.0351,6.55428 9.8047,4.35764 14.8814,8.46477 23.9333,14.32056 33.3188,21.55439 66.87,42.92377 99.1788,65.90997 15.1882,10.80573 28.9398,23.56548 43.3122,35.46583 11.7823,9.75578 24.2152,18.84412 35.152,29.50256 17.8334,17.37945 35.1991,35.48928 51.1587,54.61111 17.8324,21.36572 33.4334,44.60153 50.2171,66.85153 6.0232,7.98489 12.853,15.49723 18.2037,23.85313 2.2865,3.57066 5.0682,8.11797 4.7079,11.92656 -0.3721,3.93321 -4.7509,7.44914 -6.9049,11.29885 -2.7631,4.93829 -6.3645,9.74128 -7.8464,15.06514 -1.3428,4.82419 -1.8679,10.53817 -0.6277,15.37899 2.003,7.81807 6.0065,15.57635 10.3573,22.5977 10.8189,17.45949 22.3141,34.76145 35.1519,50.84483 24.4065,30.576691 50.0673,60.349004 76.5811,89.135375 17.4262,18.9198867 36.0479,36.909017 55.2389,53.983397 9.2653,8.243415 19.8214,15.037407 30.13023,21.969988 13.6489,9.178743 27.32507,18.486651 41.74298,26.363984 17.17703,9.3848 35.23578,17.223946 53.04182,25.422416"
       id="path6891" />
    <path
       style="fill:none;stroke:yellow;stroke-width:5;stroke-linecap:round;stroke-miterlimit:4;stroke-opacity:1;stroke-dasharray:5, 10;stroke-dashoffset:0"
       d="m -1974.6711,-368.03086 c -18.6058,-9.0255 -37.6323,-17.38765 -55.5527,-27.61941 -13.7792,-7.86733 -27.3166,-16.58756 -39.546,-26.67784 -19.4701,-16.06446 -37.1384,-34.41579 -55.5527,-51.7864 -7.4266,-7.00562 -13.9853,-15.26218 -21.97,-21.34227 -3.4188,-2.60329 -8.0959,-4.87039 -12.2404,-4.70786 -6.5267,0.25595 -13.7673,2.83426 -19.773,5.96328 -6.444,3.35735 -11.0936,10.96462 -17.576,13.49585 -4.5026,1.75815 -11.1942,1.46467 -15.379,-0.62771 -4.1847,-2.09238 -7.7309,-7.40337 -9.7295,-11.92657 -1.9769,-4.47404 -2.6761,-10.16739 -2.197,-15.06513 0.4624,-4.72721 2.2706,-9.88533 5.0217,-13.80971 4.363,-6.22366 10.202,-11.8911 16.3206,-16.63442 16.6883,-12.93729 32.2451,-11.13046 50.1002,-22.4074 5.998,-3.78819 12.7547,-6.43503 19.4591,-8.788 15.0564,-5.28422 30.2397,-10.68263 45.8232,-14.12356 33.6921,-7.43944 68.173,-14.0386 102.0035,-18.51756 3.3093,-0.43813 7.1809,1.37374 9.4157,3.76628 6.6578,7.12779 10.073,18.36903 17.2621,24.7947 4.6328,4.14085 11.7933,6.6161 18.2037,6.90486 28.4277,1.28053 57.9031,1.03263 86.3107,-2.197 16.6832,-1.8967 32.4245,-10.4258 48.9617,-13.182 9.8268,-1.6378 20.3175,-1.57194 30.1302,0"
       id="use6885" />
    <g
       style="display:inline"
       transform="matrix(-0.39820729,-1.225539,-1.225539,0.39820729,-367.42965,1052.8559)"
       id="g4801"
       clip-path="url(#clipPath9716)">
      <rect
         clip-path="url(#clipPath3490)"
         ry="0"
         transform="matrix(-0.7183395,-0.6956928,0.6956928,-0.7183395,2.4534501,-3.2500244)"
         y="368.12512"
         x="-1620.3508"
         height="33.665371"
         width="12.59828"
         id="rect3457"
         style="fill:url(#pattern4264);fill-opacity:1;stroke:black;stroke-width:0.77603012;stroke-linecap:round;stroke-linejoin:round;stroke-miterlimit:4;stroke-opacity:1;stroke-dasharray:none;stroke-dashoffset:0;display:inline" />
      <path
         style="display:inline"
         d="m 1448.3457,815.31962 -4.3473,4.30801 13.3988,9.10836 -9.0515,-13.41637 z"
         id="path3463" />
      <use
         x="0"
         y="0"
         xlink:href="#path3463"
         id="use3086"
         style="fill:red;display:inline"
         width="1424"
         height="983"
         transform="matrix(2,0,0,2,-1450.3967,-822.46087)" />
    </g>
  </g>
</svg>
