<?xml version="1.0" encoding="UTF-8" standalone="no"?>
<!-- Created with Inkscape (http://www.inkscape.org/) -->

<svg
   width="1338"
   height="727"
   viewBox="0 -30 1338 727"
   id="svg4258"
   sodipodi:version="0.32"
   inkscape:version="1.4.2 (ebf0e940d0, 2025-05-08)"
   version="1.0"
   sodipodi:docname="emi.svg"
   inkscape:output_extension="org.inkscape.output.svg.inkscape"
   inkscape:export-filename="D:\Images\Race Tracks\Albert Lake Park Street Circuit in Melborne, Australia.png"
   inkscape:export-xdpi="90.015755"
   inkscape:export-ydpi="90.015755"
   xmlns:inkscape="http://www.inkscape.org/namespaces/inkscape"
   xmlns:sodipodi="http://sodipodi.sourceforge.net/DTD/sodipodi-0.dtd"
   xmlns:xlink="http://www.w3.org/1999/xlink"
   xmlns="http://www.w3.org/2000/svg"
   xmlns:svg="http://www.w3.org/2000/svg"
   xmlns:rdf="http://www.w3.org/1999/02/22-rdf-syntax-ns#"
   xmlns:cc="http://creativecommons.org/ns#"
   xmlns:dc="http://purl.org/dc/elements/1.1/">
  <defs
     id="defs4260">
    <pattern
       patternUnits="userSpaceOnUse"
       width="18.181098"
       height="18.137641"
       patternTransform="matrix(0.1737876,0,0,0.1737876,763.47719,1693.9071)"
       id="pattern4912">
      <g
         id="g4907"
         transform="translate(-1025.5348,-1215.2814)">
        <rect
           style="opacity:1;fill:#000000;fill-opacity:1;stroke:none;stroke-width:0.5;stroke-linecap:round;stroke-linejoin:round;stroke-miterlimit:4;stroke-dasharray:none;stroke-dashoffset:0;stroke-opacity:1"
           id="rect4899"
           width="18.172573"
           height="18.095789"
           x="1025.5348"
           y="1215.2814" />
        <rect
           style="opacity:1;fill:#ffffff;fill-opacity:1;stroke:none;stroke-width:0.5;stroke-linecap:round;stroke-linejoin:round;stroke-miterlimit:4;stroke-dasharray:none;stroke-dashoffset:0;stroke-opacity:1"
           id="rect4903"
           width="9.0746527"
           height="9.0746527"
           x="1025.5348"
           y="1215.2814" />
        <rect
           style="opacity:1;fill:#ffffff;fill-opacity:1;stroke:none;stroke-width:0.5;stroke-linecap:round;stroke-linejoin:round;stroke-miterlimit:4;stroke-dasharray:none;stroke-dashoffset:0;stroke-opacity:1"
           id="rect4905"
           width="9.0746527"
           height="9.0746527"
           x="1034.6412"
           y="1224.3444" />
      </g>
    </pattern>
    <pattern
       inkscape:collect="always"
       xlink:href="#pattern4912"
       id="pattern4166"
       patternTransform="matrix(0.4562459,3.0071167e-8,-3.0071167e-8,0.4562459,521.04871,-1945.0134)" />
    <inkscape:perspective
       sodipodi:type="inkscape:persp3d"
       inkscape:vp_x="0 : 526.18109 : 1"
       inkscape:vp_y="0 : 1000 : 0"
       inkscape:vp_z="744.09448 : 526.18109 : 1"
       inkscape:persp3d-origin="372.04724 : 350.78739 : 1"
       id="perspective4266" />
    <inkscape:perspective
       id="perspective4275"
       inkscape:persp3d-origin="372.04724 : 350.78739 : 1"
       inkscape:vp_z="744.09448 : 526.18109 : 1"
       inkscape:vp_y="0 : 1000 : 0"
       inkscape:vp_x="0 : 526.18109 : 1"
       sodipodi:type="inkscape:persp3d" />
    <inkscape:perspective
       id="perspective4801"
       inkscape:persp3d-origin="372.04724 : 350.78739 : 1"
       inkscape:vp_z="744.09448 : 526.18109 : 1"
       inkscape:vp_y="0 : 1000 : 0"
       inkscape:vp_x="0 : 526.18109 : 1"
       sodipodi:type="inkscape:persp3d" />
    <inkscape:perspective
       id="perspective4818"
       inkscape:persp3d-origin="372.04724 : 350.78739 : 1"
       inkscape:vp_z="744.09448 : 526.18109 : 1"
       inkscape:vp_y="0 : 1000 : 0"
       inkscape:vp_x="0 : 526.18109 : 1"
       sodipodi:type="inkscape:persp3d" />
    <inkscape:perspective
       id="perspective2563"
       inkscape:persp3d-origin="372.04724 : 350.78739 : 1"
       inkscape:vp_z="744.09448 : 526.18109 : 1"
       inkscape:vp_y="0 : 1000 : 0"
       inkscape:vp_x="0 : 526.18109 : 1"
       sodipodi:type="inkscape:persp3d" />
    <inkscape:perspective
       id="perspective2576"
       inkscape:persp3d-origin="372.04724 : 350.78739 : 1"
       inkscape:vp_z="744.09448 : 526.18109 : 1"
       inkscape:vp_y="0 : 1000 : 0"
       inkscape:vp_x="0 : 526.18109 : 1"
       sodipodi:type="inkscape:persp3d" />
    <inkscape:perspective
       id="perspective3371"
       inkscape:persp3d-origin="372.04724 : 350.78739 : 1"
       inkscape:vp_z="744.09448 : 526.18109 : 1"
       inkscape:vp_y="0 : 1000 : 0"
       inkscape:vp_x="0 : 526.18109 : 1"
       sodipodi:type="inkscape:persp3d" />
  </defs>
  <sodipodi:namedview
     id="base"
     pagecolor="#ffffff"
     bordercolor="#ffffff"
     borderopacity="0.0"
     inkscape:pageopacity="0.0"
     inkscape:pageshadow="0"
     inkscape:zoom="0.70710678"
     inkscape:cx="729.7342"
     inkscape:cy="414.36457"
     inkscape:document-units="px"
     inkscape:current-layer="layer1"
     showgrid="false"
     inkscape:window-width="1920"
     inkscape:window-height="1048"
     inkscape:window-x="0"
     inkscape:window-y="0"
     inkscape:window-maximized="1"
     showguides="true"
     inkscape:guide-bbox="true"
     fit-margin-top="0"
     fit-margin-left="0"
     fit-margin-right="0"
     fit-margin-bottom="0"
     inkscape:showpageshadow="2"
     inkscape:pagecheckerboard="0"
     inkscape:deskcolor="#d1d1d1" />
  <metadata
     id="metadata4263">
    <rdf:RDF>
      <cc:Work
         rdf:about="">
        <dc:format>image/svg+xml</dc:format>
        <dc:type
           rdf:resource="http://purl.org/dc/dcmitype/StillImage" />
        <cc:license
           rdf:resource="http://creativecommons.org/licenses/by-sa/3.0/" />
        <dc:title />
        <dc:date>7-29-2008</dc:date>
        <dc:creator>
          <cc:Agent>
            <dc:title>Will Pittenger</dc:title>
          </cc:Agent>
        </dc:creator>
        <dc:rights>
          <cc:Agent>
            <dc:title />
          </cc:Agent>
        </dc:rights>
        <dc:publisher>
          <cc:Agent>
            <dc:title>Will Pittenger</dc:title>
          </cc:Agent>
        </dc:publisher>
        <dc:subject>
          <rdf:Bag>
            <rdf:li>Imola</rdf:li>
            <rdf:li>Enzo Ferrari</rdf:li>
            <rdf:li>road course</rdf:li>
            <rdf:li>racing</rdf:li>
            <rdf:li>Formula 1</rdf:li>
            <rdf:li>Traguardo</rdf:li>
            <rdf:li>Tamburello</rdf:li>
            <rdf:li>Villeneuve</rdf:li>
            <rdf:li>Tosa</rdf:li>
            <rdf:li>Piratella</rdf:li>
            <rdf:li>Acque Minerali</rdf:li>
            <rdf:li>Variante Alta</rdf:li>
            <rdf:li>Rivazza</rdf:li>
            <rdf:li>Variante Bassa</rdf:li>
          </rdf:Bag>
        </dc:subject>
        <dc:description>Created in Inkscape with data from Google Earth</dc:description>
      </cc:Work>
      <cc:License
         rdf:about="http://creativecommons.org/licenses/by-sa/3.0/">
        <cc:permits
           rdf:resource="http://creativecommons.org/ns#Reproduction" />
        <cc:permits
           rdf:resource="http://creativecommons.org/ns#Distribution" />
        <cc:requires
           rdf:resource="http://creativecommons.org/ns#Notice" />
        <cc:requires
           rdf:resource="http://creativecommons.org/ns#Attribution" />
        <cc:permits
           rdf:resource="http://creativecommons.org/ns#DerivativeWorks" />
        <cc:requires
           rdf:resource="http://creativecommons.org/ns#ShareAlike" />
      </cc:License>
    </rdf:RDF>
  </metadata>
  <g
     inkscape:label="Layer 1"
     inkscape:groupmode="layer"
     id="layer1"
     transform="translate(-407.16077,-399.05715)"
     style="display:inline">
    <path
       style="display:inline;fill:none;stroke:#c8c8c8;stroke-width:10;stroke-linecap:butt;stroke-linejoin:round;stroke-miterlimit:4;stroke-dasharray:none;stroke-opacity:1"
       d="m 832.54816,994.04979 c 0.0312,-6.17333 0.0341,-12.03098 0.49359,-15.84786 0.42477,-3.52872 4.13904,-4.62983 7.03766,-4.05839 17.77788,3.50478 74.6868,17.1494 93.4687,21.9062"
       id="path3164"
       inkscape:connector-curvature="0"
       sodipodi:nodetypes="cssc" />
    <path
       style="fill:none;stroke:#000000;stroke-width:2;stroke-linecap:butt;stroke-linejoin:round;stroke-miterlimit:4;stroke-dasharray:none;stroke-opacity:1"
       d="m 571.81494,861.79596 c -2.07545,0.31019 -7.14413,4.5631 -12.63888,6.02163 -6.31869,1.67724 -17.36198,0.79579 -23.74667,0.47442 -7.92695,-0.399 -59.21352,-3.99895 -67.80933,-4.46147 -5.30385,-0.2854 -9.67845,-0.61365 -11.81992,-1.02274 -33.1568,-6.33403 -119.48201,-28.00999 -126.2433,-27.89109 -17.18044,0.30212 -218.4613,-0.37302 -224.65424,-0.11189 -3.17442,0.13385 -10.507633,1.68696 -11.912665,2.01512 -9.926352,2.31838 -52.581286,17.38682 -65.765805,21.77465 -7.20271,2.39708 -60.5,15.5 -60.5,15.5"
       id="path3356"
       transform="translate(600.76153,169.297)"
       sodipodi:nodetypes="cssssssssc"
       inkscape:connector-curvature="0" />
    <path
       style="fill:none;stroke:#000000;stroke-width:10;stroke-linecap:butt;stroke-linejoin:round;stroke-miterlimit:4;stroke-dasharray:none;stroke-opacity:1"
       d="m 501.6875,603.96875 c 12.72464,0.43615 103.21154,22.57429 155.65625,32.375 18.45179,3.44821 61.47735,5.9663 81.28125,4 73.8993,-7.3375 105.14235,-10.18005 142.34375,-14.9375 9.00379,-1.15144 71.6172,-14.56806 75.9375,-18.6875 5.40457,-5.1533 9.9715,-12.59923 9.75,-21.65625 -0.20224,-8.26963 5.3103,-21.1408 16.9375,-28.71875 17.04045,-11.10603 48.49155,-24.12453 65.56245,-34.90625 8.1823,-5.16777 11.9651,-13.39796 15.9376,-22.4375 38.2272,-86.98967 78.0861,-174.69641 104.4595,-263.88848 2.5351,-8.57343 -2.2854,-22.22529 -5.0901,-30.79534 -5.9263,-18.10804 -7.5916,-32.83097 2.5962,-41.65136 41.7341,-34.64165 81.6832,-70.896309 125.0582,-105.363359 6.4408,-5.11808 9.3686,-18.200194 9.9437,-25.86948 0.4216,-5.621954 -4.537,-11.64517 -10.2543,-17.248161 -3.1267,-3.064154 -16.225,-1.629782 -20.7544,-1.050252 -77.8589,9.9621 -136.5316,17.410476 -215.022,25.431376 -12.5546,1.28296 -49.1092,-1.16089 -61.59431,-3.02941 -36.3602,-5.44166 -56.27215,-11.856847 -92.39279,-16.75552 -13.12808,-1.780426 -26.9392,-1.097236 -33.44179,5.675857 -2.29925,2.394903 -10.87685,11.928472 -14.74652,20.546245 -4.87754,10.862313 -14.59347,28.380457 -22.14748,49.699471 -5.6982,16.081543 -7.5798,39.966183 -5.82843,57.408693 2.85465,28.43037 28.14499,124.63773 26.13849,138.97671 -2.0987,14.99705 -26.72192,46.21112 -37.93566,61.67342 -3.0281,4.59943 -15.52708,4.41137 -23.79718,0.95466 -8.2702,-3.4567 -17.48894,-8.69865 -25.67402,-9.05822 -87.39527,-3.83926 -203.67755,0.9666 -308.07966,-1.90685 -4.25378,-0.11708 -6.92213,-2.6324 -7.75,-8.71875 -1.37088,-10.07847 -6.98104,-12.02613 -11.46875,-10.21875 -34.49516,13.89257 -77.62944,30.70283 -112.875,46.375 -30.15401,13.40818 -51.1179,28.31088 -74.78125,48.59375 -41.46372,35.54033 -95.85902,93.41723 -123.375,117.875 C 106.10656,554.58866 54.939475,572.78347 19.125,588.75 8.97781,593.27374 1.30872,601.13606 4.9375,611.4375 c 7.591643,21.55128 16.88379,43.73885 28.375,61.78125 3.63589,5.7088 18.96029,9.4227 25.9375,7.25 66.98134,-20.8583 128.07958,-50.96955 195.27909,-72.51652 9.26597,-2.97106 25.40108,-5.21212 36.70584,-5.2247 78.22349,0.72847 131.24073,0.23026 210.45257,1.24122 z"
       id="path2582"
       inkscape:connector-curvature="0"
       sodipodi:nodetypes="csssssssssscsssssssssssscssssssssssssscc"
       transform="translate(428.36066,391.76854)" />
    <g
       transform="rotate(-136.93299,1298.4656,1217.4583)"
       id="g4176">
      <path
         transform="matrix(0.3524089,0.3741722,1.134085,-1.0681218,-310.14,1879.74)"
         d="m 1695.937,1398.5206 -24.4812,0 12.2406,-21.2013 z"
         id="path3463"
         style="display:inline;fill:#ff0000;fill-opacity:1;stroke:#ffffff;stroke-width:0.83812821;stroke-linecap:round;stroke-linejoin:miter;stroke-miterlimit:4;stroke-dasharray:none;stroke-dashoffset:0;stroke-opacity:1" />
      <rect
         ry="0"
         transform="matrix(0.7304711,-0.6829436,-0.6829436,-0.7304711,0,0)"
         y="-2023.6393"
         x="678.39148"
         height="53.588936"
         width="13.041033"
         id="rect3457"
         style="display:inline;fill:url(#pattern4166);fill-opacity:1;stroke:#000000;stroke-width:0.74999946;stroke-linecap:round;stroke-linejoin:round;stroke-miterlimit:4;stroke-dasharray:none;stroke-dashoffset:0;stroke-opacity:1" />
    </g>
    <path
       transform="matrix(0,0.514,1.558,0,-1088,-150)"
       d="m 1695.937,1398.5206 -24.4812,0 12.2406,-21.2013 z"
       id="path4353"
       style="display:inline;fill:#ff0000;fill-opacity:1;stroke:#ffffff;stroke-width:0.83812821;stroke-linecap:round;stroke-linejoin:miter;stroke-miterlimit:4;stroke-dasharray:none;stroke-dashoffset:0;stroke-opacity:1" />
    <path
       transform="matrix(-0.47739633,-0.19049606,-0.57741802,1.4470496,3175.14,-911.85)"
       d="m 1695.937,1398.5206 -24.4812,0 12.2406,-21.2013 z"
       id="path4354"
       style="display:inline;fill:#ff0000;fill-opacity:1;stroke:#ffffff;stroke-width:0.83812821;stroke-linecap:round;stroke-linejoin:miter;stroke-miterlimit:4;stroke-dasharray:none;stroke-dashoffset:0;stroke-opacity:1" />
  </g>
</svg>
