<?xml version="1.0" encoding="UTF-8" standalone="no"?>
<!-- Created with Inkscape (http://www.inkscape.org/) -->

<svg
   width="1466.6552"
   height="749.26263"
   id="svg2383"
   sodipodi:version="0.32"
   inkscape:version="1.4.2 (ebf0e940d0, 2025-05-08)"
   version="1.0"
   sodipodi:docname="ita.svg"
   inkscape:output_extension="org.inkscape.output.svg.inkscape"
   inkscape:export-filename="c:\Monza track map.png"
   inkscape:export-xdpi="90.015755"
   inkscape:export-ydpi="90.015755"
   xmlns:inkscape="http://www.inkscape.org/namespaces/inkscape"
   xmlns:sodipodi="http://sodipodi.sourceforge.net/DTD/sodipodi-0.dtd"
   xmlns:xlink="http://www.w3.org/1999/xlink"
   xmlns="http://www.w3.org/2000/svg"
   xmlns:svg="http://www.w3.org/2000/svg"
   xmlns:rdf="http://www.w3.org/1999/02/22-rdf-syntax-ns#"
   xmlns:cc="http://creativecommons.org/ns#"
   xmlns:dc="http://purl.org/dc/elements/1.1/">
  <title
     id="title3920">Autodromo Nazionale Monza</title>
  <defs
     id="defs2385">
    <pattern
       inkscape:collect="always"
       xlink:href="#pattern4256"
       id="pattern2580"
       patternTransform="matrix(-0.7255169,-0.6882039,0.6882039,-0.7255169,-80.698598,-1647.2422)" />
    <clipPath
       clipPathUnits="userSpaceOnUse"
       id="clipPath3490">
      <rect
         style="fill:#006a00;fill-opacity:1;fill-rule:nonzero;stroke:none"
         id="rect3492"
         width="1511.7875"
         height="1003.7479"
         x="683.1405"
         y="104.1039"
         transform="matrix(-0.71834,0.695693,-0.695693,-0.71834,0,0)" />
    </clipPath>
    <pattern
       patternUnits="userSpaceOnUse"
       width="10.793857"
       height="10.773841"
       patternTransform="matrix(-0.563023, -0.534067, 0.534067, -0.563023, 1593.72, 910.57)"
       id="pattern4256">
      <g
         id="g4248"
         transform="matrix(0.587891, 0.00609871, -0.00609871, 0.587891, -595.381, -720.708)">
        <rect
           style="opacity: 1; fill: black; fill-opacity: 1; stroke: none; stroke-width: 0.5; stroke-linecap: round; stroke-linejoin: round; stroke-miterlimit: 4; stroke-dasharray: none; stroke-dashoffset: 0pt; stroke-opacity: 1;"
           id="rect4250"
           width="18.172573"
           height="18.095789"
           x="1025.5348"
           y="1215.2814" />
        <rect
           style="opacity: 1; fill: white; fill-opacity: 1; stroke: none; stroke-width: 0.5; stroke-linecap: round; stroke-linejoin: round; stroke-miterlimit: 4; stroke-dasharray: none; stroke-dashoffset: 0pt; stroke-opacity: 1;"
           id="rect4252"
           width="9.0746527"
           height="9.0746527"
           x="1025.5348"
           y="1215.2814" />
        <rect
           style="opacity: 1; fill: white; fill-opacity: 1; stroke: none; stroke-width: 0.5; stroke-linecap: round; stroke-linejoin: round; stroke-miterlimit: 4; stroke-dasharray: none; stroke-dashoffset: 0pt; stroke-opacity: 1;"
           id="rect4254"
           width="9.0746527"
           height="9.0746527"
           x="1034.6412"
           y="1224.3444" />
      </g>
    </pattern>
    <pattern
       inkscape:collect="always"
       xlink:href="#pattern4256"
       id="pattern4264"
       patternTransform="matrix(-0.77603, 0.000979359, -0.000979359, -0.77603, -1599.83, 380.49)" />
    <clipPath
       clipPathUnits="userSpaceOnUse"
       id="clipPath3494">
      <rect
         style="fill:#006a00;fill-opacity:1;fill-rule:nonzero;stroke:none"
         id="rect3496"
         width="2168.1926"
         height="1468.4177"
         x="-4232.8457"
         y="-2372.1296"
         transform="matrix(-0.947297,-0.320358,0.951902,-0.306404,0,0)" />
    </clipPath>
    <clipPath
       clipPathUnits="userSpaceOnUse"
       id="clipPath9716">
      <path
         id="path9718"
         d="M 871.13547,932.36346 C 1314.8756,1345.252 1758.6155,1758.1404 2202.3556,2171.029 2375.7787,1984.6474 2549.2018,1798.266 2722.6249,1611.8845 2278.8848,1198.996 1835.1448,786.10758 1391.4047,373.21904 1217.9816,559.60052 1044.5586,745.98194 871.13547,932.36346 z"
         style="fill:#6a6a6a;fill-opacity:1;fill-rule:nonzero;stroke:#010101;stroke-width:0.942626;stroke-linecap:round;stroke-linejoin:round;stroke-miterlimit:4;stroke-opacity:1;stroke-dasharray:none;stroke-dashoffset:0"
         inkscape:connector-curvature="0" />
    </clipPath>
    <inkscape:perspective
       sodipodi:type="inkscape:persp3d"
       inkscape:vp_x="0 : 526.18109 : 1"
       inkscape:vp_y="0 : 1000 : 0"
       inkscape:vp_z="744.09448 : 526.18109 : 1"
       inkscape:persp3d-origin="372.04724 : 350.78739 : 1"
       id="perspective2391" />
    <inkscape:perspective
       id="perspective2400"
       inkscape:persp3d-origin="372.04724 : 350.78739 : 1"
       inkscape:vp_z="744.09448 : 526.18109 : 1"
       inkscape:vp_y="0 : 1000 : 0"
       inkscape:vp_x="0 : 526.18109 : 1"
       sodipodi:type="inkscape:persp3d" />
    <inkscape:perspective
       id="perspective3665"
       inkscape:persp3d-origin="372.04724 : 350.78739 : 1"
       inkscape:vp_z="744.09448 : 526.18109 : 1"
       inkscape:vp_y="0 : 1000 : 0"
       inkscape:vp_x="0 : 526.18109 : 1"
       sodipodi:type="inkscape:persp3d" />
    <clipPath
       clipPathUnits="userSpaceOnUse"
       id="clipPath3494-7">
      <rect
         style="fill:#006a00;fill-opacity:1;fill-rule:nonzero;stroke:none"
         id="rect3496-6"
         width="2168.1926"
         height="1468.4177"
         x="-4232.8457"
         y="-2372.1296"
         transform="matrix(-0.947297,-0.320358,0.951902,-0.306404,0,0)" />
    </clipPath>
  </defs>
  <sodipodi:namedview
     id="base"
     pagecolor="#ffffff"
     bordercolor="#ffffff"
     borderopacity="0.0"
     inkscape:pageopacity="0.0"
     inkscape:pageshadow="0"
     inkscape:zoom="0.76408912"
     inkscape:cx="531.35163"
     inkscape:cy="513.02916"
     inkscape:document-units="px"
     inkscape:current-layer="layer8"
     showgrid="false"
     inkscape:showpageshadow="true"
     showborder="true"
     inkscape:window-width="1920"
     inkscape:window-height="1048"
     inkscape:window-x="0"
     inkscape:window-y="0"
     inkscape:window-maximized="1"
     showguides="true"
     inkscape:guide-bbox="true"
     fit-margin-top="0"
     fit-margin-left="0"
     fit-margin-right="0"
     fit-margin-bottom="0"
     inkscape:pagecheckerboard="0"
     inkscape:deskcolor="#d1d1d1" />
  <metadata
     id="metadata2388">
    <rdf:RDF>
      <cc:Work
         rdf:about="">
        <dc:format>image/svg+xml</dc:format>
        <dc:type
           rdf:resource="http://purl.org/dc/dcmitype/StillImage" />
        <dc:title>Autodromo Nazionale Monza</dc:title>
        <dc:date>7 Sep 2014</dc:date>
        <dc:creator>
          <cc:Agent>
            <dc:title>Will Pittenger</dc:title>
          </cc:Agent>
        </dc:creator>
        <dc:publisher>
          <cc:Agent>
            <dc:title />
          </cc:Agent>
        </dc:publisher>
        <dc:subject>
          <rdf:Bag>
            <rdf:li>Monza</rdf:li>
            <rdf:li>Italy</rdf:li>
            <rdf:li>Milan</rdf:li>
            <rdf:li>Rettifilo</rdf:li>
            <rdf:li>Rettifilo Tribune</rdf:li>
            <rdf:li>Curva Grande</rdf:li>
            <rdf:li>Variante della Roggia</rdf:li>
            <rdf:li>Curva di Lesmos</rdf:li>
            <rdf:li>Curva de Serraglio</rdf:li>
            <rdf:li>Curva del Vialone</rdf:li>
            <rdf:li>Variante Ascari</rdf:li>
            <rdf:li>Curva Parabolica</rdf:li>
            <rdf:li>Formula 1</rdf:li>
            <rdf:li>racing</rdf:li>
            <rdf:li>road course</rdf:li>
            <rdf:li>high speed oval</rdf:li>
          </rdf:Bag>
        </dc:subject>
        <dc:description>Created in Inkscape with data from Google Earth.  The high speed oval (the track is in bad shape) is shown in the background.</dc:description>
        <cc:license
           rdf:resource="http://creativecommons.org/licenses/by-sa/3.0/" />
        <dc:contributor>
          <cc:Agent>
            <dc:title>Craig Petty</dc:title>
          </cc:Agent>
        </dc:contributor>
      </cc:Work>
      <cc:License
         rdf:about="http://creativecommons.org/licenses/by-sa/3.0/">
        <cc:permits
           rdf:resource="http://creativecommons.org/ns#Reproduction" />
        <cc:permits
           rdf:resource="http://creativecommons.org/ns#Distribution" />
        <cc:requires
           rdf:resource="http://creativecommons.org/ns#Notice" />
        <cc:requires
           rdf:resource="http://creativecommons.org/ns#Attribution" />
        <cc:permits
           rdf:resource="http://creativecommons.org/ns#DerivativeWorks" />
        <cc:requires
           rdf:resource="http://creativecommons.org/ns#ShareAlike" />
      </cc:License>
    </rdf:RDF>
  </metadata>
  <g
     inkscape:groupmode="layer"
     id="layer2"
     inkscape:label="fff"
     style="display:inline"
     sodipodi:insensitive="true"
     transform="translate(45.871755,-5.9199238)">
    <path
       style="fill:none;stroke:#8c8c8c;stroke-width:7;stroke-linecap:round;stroke-linejoin:miter;stroke-miterlimit:4;stroke-opacity:1;stroke-dasharray:none"
       d="m 752.93487,668.90797 c 0,0 -16.03157,-6.2936 -30.82085,-7.85875 -8.21125,-0.869 -21.55367,-1.6813 -29.14527,-8.13374 -7.5916,-6.45244 -6.65146,-15.24383 -5.40193,-20.56951 1.38985,-5.92377 5.76714,-9.70222 10.15625,-12.89062 5.71085,-4.14855 14.07063,-5.77574 18.75,-12.10938 7.29771,-9.87762 6.97557,-11.80062 11.27928,-23.4375 3.44083,-9.30372 2.87127,-22.77436 2.89628,-32.90501 0.021,-8.49018 -1.60103,-19.56202 3.92939,-26.10507 1.7727,-2.09729 5.59896,-2.73437 7.42187,-3.51562 1.82291,-0.78125 9.2448,-1.5625 9.76563,-1.5625 l 67.40082,-9.92754"
       id="path3856"
       inkscape:connector-curvature="0"
       sodipodi:nodetypes="cszsssssszcc" />
    <path
       style="fill:none;stroke:#8c8c8c;stroke-width:7.0999999;stroke-linecap:round;stroke-linejoin:miter;stroke-miterlimit:4;stroke-opacity:1;stroke-dasharray:none"
       d="M 479.20828,669.01 462.52616,652.48007"
       id="path3858"
       inkscape:connector-curvature="0"
       sodipodi:nodetypes="cc" />
    <path
       style="fill:none;stroke:#8c8c8c;stroke-width:7.0999999;stroke-linecap:butt;stroke-linejoin:miter;stroke-miterlimit:4;stroke-opacity:1;stroke-dasharray:none"
       d="m 489.564,673.85938 -100.78126,3.51563"
       id="path3860"
       inkscape:connector-curvature="0"
       sodipodi:nodetypes="cc" />
  </g>
  <g
     inkscape:groupmode="layer"
     id="layer3"
     inkscape:label="lay"
     style="display:inline"
     sodipodi:insensitive="true"
     transform="translate(45.871755,-5.9199238)">
    <path
       style="fill:none;stroke:#8c8c8c;stroke-width:7.0999999;stroke-linecap:round;stroke-linejoin:miter;stroke-miterlimit:4;stroke-opacity:1;stroke-dasharray:none"
       d="m 700.06682,509.18088 -505.36084,7.42703 c 0,0 -15.09794,1.7744 -19.92187,4.68749 -4.82394,2.9131 -7.22854,4.47531 -9.375,7.42188 -2.14647,2.94657 -4.65276,7.50119 -5.46875,10.54688 -0.81599,3.04569 -0.97656,9.17969 -0.97656,9.17969 0,0 0.40875,4.6337 1.36719,7.61719 0.95843,2.98348 3.12499,6.11979 5.07812,8.98437 1.95312,2.86458 6.64062,8.20312 6.64062,8.20312 0,0 70.26917,65.59079 90.23437,79.29688 19.96521,13.70609 33.2751,23.90009 33.2751,23.90009"
       id="path3854"
       inkscape:connector-curvature="0"
       sodipodi:nodetypes="cczzzczzczc" />
  </g>
  <g
     inkscape:groupmode="layer"
     id="layer10"
     inkscape:label="Oval"
     style="display:inline"
     sodipodi:insensitive="true"
     transform="translate(45.871755,-5.9199238)">
    <path
       inkscape:connector-curvature="0"
       sodipodi:nodetypes="sssssss"
       id="path3111"
       d="m 1231.2059,662.3706 c -104.8251,3.56098 -511.70042,5.24339 -616.58977,3.79778 C 491.53898,664.4721 379.97256,594.37632 379.78455,477.60581 379.60782,367.84196 469.5173,280.67406 574.4029,280.67406 c 104.88561,0 552.045,8.2206 656.9305,8.2206 104.8855,0 181.4677,86.27625 182.9268,191.15163 1.6551,118.95319 -85.6164,179.01427 -183.0543,182.32431 z"
       style="fill:none;stroke:#c8c8c8;stroke-width:13;stroke-linecap:round;stroke-linejoin:round;stroke-miterlimit:4;stroke-opacity:1;stroke-dasharray:none;stroke-dashoffset:66;marker:none;visibility:visible;display:inline;overflow:visible" />
  </g>
  <g
     style="display:inline"
     transform="translate(-646.73628,-335.58706)"
     id="g3109"
     inkscape:groupmode="layer"
     inkscape:label="Circuit copy"
     sodipodi:insensitive="true">
    <path
       inkscape:connector-curvature="0"
       sodipodi:nodetypes="sssssssssscsssssssssssccssss"
       id="path3113"
       d="m 1542.8438,997.31011 c -120.0271,3.46239 -239.4632,4.38879 -358.7611,5.94609 -24.6642,0.3249 0.4836,-34.06706 -25.9987,-23.48239 -36.4229,14.55784 -71.5495,27.24769 -111.0721,27.54539 -37.0837,0.2793 -89.6343,0.759 -113.85858,-7.2768 -26.25187,-8.70837 -53.20762,-29.18482 -63.06411,-37.21535 -17.95703,-14.63042 -35.27397,-37.10327 -48.0975,-68.1798 -14.81075,-35.89238 -26.79844,-95.40814 -35.59139,-148.16584 -4.77525,-28.65153 -17.44947,-96.77342 -20.72927,-122.5401 -3.03479,-23.84181 -23.46507,-8.92161 -29.44922,-25.47372 -24.88359,-68.82774 -56.78783,-121.22944 -59.16981,-130.66226 -12.15491,-24.93019 -15.52544,-40.92394 -10.96141,-58.60954 2.51504,-9.74577 21.18423,-25.87355 31.81055,-27.91463 48.28485,-9.27448 91.72764,-18.7665 141.59781,-26.89069 7.19282,-1.17176 15.50201,6.81723 19.58217,12.14608 24.39633,31.86252 92.0318,136.0776 132.33205,181.51184 39.73831,44.80068 82.03981,79.49356 131.36311,125.0689 47.7189,44.09281 97.8784,91.32569 145.3773,132.39443 12.4388,10.75498 34.3843,-3.19489 57.2519,-1.37654 5.1681,0.41095 21.2887,4.73224 31.4024,13.83275 5.0569,4.55026 10.6975,12.77785 19.1747,15.86355 8.4772,3.08569 35.7603,3.85639 39.4783,3.83414 180.1175,-1.07777 342.8969,-0.94843 523.5153,0.24735 36.6721,-0.0652 53.0009,16.91573 55.0895,50.13608 -0.2883,11.96939 -1.5155,25.14753 -11.1287,37.75185 -12.7528,16.72064 -34.6613,34.72018 -53.541,42.63071 -34.3252,14.38214 -69.4635,15.39125 -104.5094,19.43327 -90.3111,10.41603 -189.4012,6.7728 -282.0428,9.44523 z"
       style="fill:none;stroke:#000000;stroke-width:13;stroke-linecap:butt;stroke-linejoin:round;stroke-miterlimit:4;stroke-opacity:1;stroke-dasharray:none" />
    <path
       inkscape:connector-curvature="0"
       sodipodi:nodetypes="csss"
       id="path3115"
       d="m 1839.8509,983.72041 c -19.7855,-0.97728 -104.0258,-2.85846 -131.3767,-2.44964 -46.4735,0.69464 -58.0445,1.59025 -111.3206,2.06049 -74.7664,0.65993 -165.6885,11.33535 -194.5472,12.85811"
       style="fill:none;stroke:#000000;stroke-width:5.07262278;stroke-linecap:butt;stroke-linejoin:round;stroke-miterlimit:4;stroke-opacity:1;stroke-dasharray:none" />
    <rect
       transform="matrix(-0.6848032,0.7287281,-0.7287281,-0.6848032,0,0)"
       style="fill:url(#pattern2580);stroke:none"
       width="0"
       height="0"
       x="-80.692657"
       y="-1647.2416"
       id="rect3129" />
  </g>
  <g
     inkscape:groupmode="layer"
     id="layer11"
     inkscape:label="sectors"
     transform="translate(45.871755,-5.9199238)"
     style="display:inline">
    <path
       style="fill:none;stroke:#fefe00;stroke-width:4;stroke-linecap:round;stroke-linejoin:round;stroke-miterlimit:4;stroke-opacity:1;stroke-dasharray:4, 12;stroke-dashoffset:0;display:inline"
       d="m 87.4375,380.53125 c 2.300979,13.00457 4.954281,27.94443 6.34375,36.28125 8.79295,52.7577 20.783,112.26387 35.59375,148.15625 12.82353,31.07653 30.13672,53.55708 48.09375,68.1875 9.85649,8.03053 36.81063,28.51038 63.0625,37.21875 24.22428,8.0358 76.7913,7.56055 113.875,7.28125 39.5226,-0.2977 74.6396,-13.00466 111.0625,-27.5625 26.4823,-10.58467 1.3358,23.8249 26,23.5 119.2979,-1.5573 274.58564,-3.28377 358.78125,-5.9375 42.30065,-1.33326 167.1126,-3.29067 184.5684,-3.30307"
       id="path5276"
       inkscape:connector-curvature="0"
       sodipodi:nodetypes="csssssscsc" />
    <path
       style="fill:none;stroke:#00eaea;stroke-width:4;stroke-linecap:round;stroke-linejoin:round;stroke-miterlimit:4;stroke-opacity:1;stroke-dasharray:4, 12;stroke-dashoffset:0;display:inline"
       d="m 1026.966,664.35313 c 92.2604,-2.6004 16.7437,-0.3799 105.3152,-6.16563 35.2033,-2.29958 70.1749,-5.05536 104.5,-19.4375 18.8798,-7.91053 40.8097,-25.90436 53.5626,-42.625 9.6132,-12.60432 10.8365,-25.78061 11.125,-37.75 -2.0888,-33.22035 -18.4217,-50.1902 -55.0938,-50.125 -180.6184,-1.19578 -343.41375,-1.32777 -523.53125,-0.25 -3.718,0.0222 -30.99155,-0.75806 -39.46875,-3.84375 -8.4772,-3.0857 -14.1306,-11.29349 -19.1875,-15.84375 -10.1137,-9.10051 -26.2069,-13.4328 -31.375,-13.84375 -22.8676,-1.81835 -44.84245,12.12998 -57.28125,1.375 -18.61317,-16.09341 -37.6573,-33.25692 -56.78125,-50.6875"
       id="path5273"
       inkscape:connector-curvature="0"
       sodipodi:nodetypes="csssccsssssc" />
    <path
       style="fill:none;stroke:#fe0000;stroke-width:4;stroke-linecap:round;stroke-linejoin:round;stroke-miterlimit:4;stroke-opacity:1;stroke-dasharray:4, 12;stroke-dashoffset:0;display:inline"
       d="M 517.75,424.25 C 488.40196,397.49013 458.84848,369.94945 430.15625,343.4375 380.83295,297.86216 338.55081,263.17568 298.8125,218.375 258.51225,172.94076 190.86508,68.73752 166.46875,36.875 162.38859,31.54615 154.09907,23.54699 146.90625,24.71875 97.03608,32.84294 53.5661,42.35052 5.28125,51.625 c -10.62632,2.04108 -29.29746,18.16048 -31.8125,27.90625 -4.56403,17.6856 -1.18616,33.66356 10.96875,58.59375 2.38198,9.43282 34.30391,61.85976 59.1875,130.6875 5.98415,16.55211 26.40271,1.62694 29.4375,25.46875 2.325466,18.26927 8.768104,54.5612 14.375,86.25"
       id="path3929"
       inkscape:connector-curvature="0"
       sodipodi:nodetypes="csssssscssc" />
  </g>
  <g
     inkscape:groupmode="layer"
     id="layer8"
     inkscape:label="Start-Finish"
     style="display:inline"
     transform="translate(45.871755,-5.9199238)">
    <path
       clip-path="url(#clipPath3494)"
       transform="matrix(-0.02874366,-0.6617229,2.0056197,-0.08711993,-2009.4344,1928.3007)"
       d="m 1695.937,1398.5206 -24.4812,0 12.2406,-21.2013 z"
       inkscape:randomized="0"
       inkscape:rounded="0"
       inkscape:flatsided="true"
       sodipodi:arg2="1.5707963"
       sodipodi:arg1="0.52359878"
       sodipodi:r2="7.0671172"
       sodipodi:r1="14.134234"
       sodipodi:cy="1391.4535"
       sodipodi:cx="1683.6964"
       sodipodi:sides="3"
       id="path3125"
       style="fill:#ff0000;fill-opacity:1;stroke:#ffffff;stroke-width:0.867217;stroke-linecap:round;stroke-linejoin:miter;stroke-miterlimit:4;stroke-opacity:1;stroke-dasharray:none;stroke-dashoffset:0;display:inline"
       sodipodi:type="star" />
    <rect
       clip-path="url(#clipPath3490)"
       ry="0"
       transform="matrix(1.2871826,-0.06064419,0.06064419,1.2871826,3087.7811,47.066685)"
       y="376.01733"
       x="-1620.8837"
       height="53.588943"
       width="13.041035"
       id="rect3127"
       style="fill:url(#pattern4264) #000000;fill-opacity:1;stroke:#000000;stroke-width:0.77603;stroke-linecap:round;stroke-linejoin:round;stroke-miterlimit:4;stroke-opacity:1;stroke-dasharray:none;stroke-dashoffset:0;display:inline" />
    <path
       sodipodi:nodetypes="cccc"
       inkscape:connector-curvature="0"
       id="path3131"
       d="m 377.9375,275.40271 12.5,-12.5 20.3125,32.03125 z"
       style="fill:#ff0000;fill-opacity:1;stroke:#ff0000;stroke-width:1px;stroke-linecap:butt;stroke-linejoin:miter;stroke-opacity:1;display:inline" />
  </g>
</svg>
