<?xml version="1.0" encoding="UTF-8" standalone="no"?>
<!-- Created with Inkscape (http://www.inkscape.org/) -->

<svg
   width="1434.916"
   height="939.91528"
   id="svg2816"
   version="1.1"
   inkscape:version="1.4.2 (ebf0e940d0, 2025-05-08)"
   sodipodi:docname="sap.svg"
   inkscape:export-filename="E:\Images\Race Tracks\Autódromo José Carlos Pace (AKA Interlagos) track map.png"
   inkscape:export-xdpi="90"
   inkscape:export-ydpi="90"
   xmlns:inkscape="http://www.inkscape.org/namespaces/inkscape"
   xmlns:sodipodi="http://sodipodi.sourceforge.net/DTD/sodipodi-0.dtd"
   xmlns:xlink="http://www.w3.org/1999/xlink"
   xmlns="http://www.w3.org/2000/svg"
   xmlns:svg="http://www.w3.org/2000/svg"
   xmlns:rdf="http://www.w3.org/1999/02/22-rdf-syntax-ns#"
   xmlns:cc="http://creativecommons.org/ns#"
   xmlns:dc="http://purl.org/dc/elements/1.1/">
  <title
     id="title4821">Track map of Autódromo José Carlos Pace (AKA Interlagos)</title>
  <defs
     id="defs2818">
    <inkscape:perspective
       sodipodi:type="inkscape:persp3d"
       inkscape:vp_x="0 : 526.18109 : 1"
       inkscape:vp_y="0 : 1000 : 0"
       inkscape:vp_z="744.09448 : 526.18109 : 1"
       inkscape:persp3d-origin="372.04724 : 350.78739 : 1"
       id="perspective2824" />
    <inkscape:perspective
       id="perspective2834"
       inkscape:persp3d-origin="0.5 : 0.33333333 : 1"
       inkscape:vp_z="1 : 0.5 : 1"
       inkscape:vp_y="0 : 1000 : 0"
       inkscape:vp_x="0 : 0.5 : 1"
       sodipodi:type="inkscape:persp3d" />
    <inkscape:perspective
       id="perspective3624"
       inkscape:persp3d-origin="0.5 : 0.33333333 : 1"
       inkscape:vp_z="1 : 0.5 : 1"
       inkscape:vp_y="0 : 1000 : 0"
       inkscape:vp_x="0 : 0.5 : 1"
       sodipodi:type="inkscape:persp3d" />
    <inkscape:perspective
       id="perspective3904"
       inkscape:persp3d-origin="0.5 : 0.33333333 : 1"
       inkscape:vp_z="1 : 0.5 : 1"
       inkscape:vp_y="0 : 1000 : 0"
       inkscape:vp_x="0 : 0.5 : 1"
       sodipodi:type="inkscape:persp3d" />
    <clipPath
       clipPathUnits="userSpaceOnUse"
       id="clipPath9716">
      <path
         id="path9718"
         d="M 871.13547,932.36346 C 1314.8756,1345.252 1758.6155,1758.1404 2202.3556,2171.029 2375.7787,1984.6474 2549.2018,1798.266 2722.6249,1611.8845 2278.8848,1198.996 1835.1448,786.10758 1391.4047,373.21904 1217.9816,559.60052 1044.5586,745.98194 871.13547,932.36346 z"
         style="fill:#6a6a6a;fill-opacity:1;fill-rule:nonzero;stroke:#010101;stroke-width:0.9426257;stroke-linecap:round;stroke-linejoin:round;stroke-miterlimit:4;stroke-opacity:1;stroke-dasharray:none;stroke-dashoffset:0" />
    </clipPath>
    <pattern
       inkscape:collect="always"
       xlink:href="#pattern4256"
       id="pattern4264"
       patternTransform="matrix(-0.7760302,9.7935943e-4,-9.7935943e-4,-0.7760302,-614.94179,96.090343)" />
    <pattern
       patternUnits="userSpaceOnUse"
       width="10.793857"
       height="10.773841"
       patternTransform="matrix(-0.5630234,-0.534067,0.534067,-0.5630234,1593.7246,910.57043)"
       id="pattern4256">
      <g
         id="g4248"
         transform="matrix(0.5878912,6.0987118e-3,-6.0987118e-3,0.5878912,-595.3809,-720.7077)">
        <rect
           style="opacity:1;fill:black;fill-opacity:1;stroke:none;stroke-width:0.5;stroke-linecap:round;stroke-linejoin:round;stroke-miterlimit:4;stroke-dasharray:none;stroke-dashoffset:0;stroke-opacity:1"
           id="rect4250"
           width="18.172573"
           height="18.095789"
           x="1025.5348"
           y="1215.2814" />
        <rect
           style="opacity:1;fill:white;fill-opacity:1;stroke:none;stroke-width:0.5;stroke-linecap:round;stroke-linejoin:round;stroke-miterlimit:4;stroke-dasharray:none;stroke-dashoffset:0;stroke-opacity:1"
           id="rect4252"
           width="9.0746527"
           height="9.0746527"
           x="1025.5348"
           y="1215.2814" />
        <rect
           style="opacity:1;fill:white;fill-opacity:1;stroke:none;stroke-width:0.5;stroke-linecap:round;stroke-linejoin:round;stroke-miterlimit:4;stroke-dasharray:none;stroke-dashoffset:0;stroke-opacity:1"
           id="rect4254"
           width="9.0746527"
           height="9.0746527"
           x="1034.6412"
           y="1224.3444" />
      </g>
    </pattern>
    <pattern
       inkscape:collect="always"
       xlink:href="#pattern4256"
       id="pattern5622"
       patternTransform="matrix(-0.5630234,-0.534067,0.534067,-0.5630234,390.30316,988.55513)" />
    <pattern
       patternUnits="userSpaceOnUse"
       width="10.793857"
       height="10.773841"
       patternTransform="matrix(-0.5630234,-0.534067,0.534067,-0.5630234,1593.7246,910.57043)"
       id="pattern3921">
      <g
         id="g3923"
         transform="matrix(0.5878912,6.0987118e-3,-6.0987118e-3,0.5878912,-595.3809,-720.7077)">
        <rect
           style="opacity:1;fill:black;fill-opacity:1;stroke:none;stroke-width:0.5;stroke-linecap:round;stroke-linejoin:round;stroke-miterlimit:4;stroke-dasharray:none;stroke-dashoffset:0;stroke-opacity:1"
           id="rect3925"
           width="18.172573"
           height="18.095789"
           x="1025.5348"
           y="1215.2814" />
        <rect
           style="opacity:1;fill:white;fill-opacity:1;stroke:none;stroke-width:0.5;stroke-linecap:round;stroke-linejoin:round;stroke-miterlimit:4;stroke-dasharray:none;stroke-dashoffset:0;stroke-opacity:1"
           id="rect3927"
           width="9.0746527"
           height="9.0746527"
           x="1025.5348"
           y="1215.2814" />
        <rect
           style="opacity:1;fill:white;fill-opacity:1;stroke:none;stroke-width:0.5;stroke-linecap:round;stroke-linejoin:round;stroke-miterlimit:4;stroke-dasharray:none;stroke-dashoffset:0;stroke-opacity:1"
           id="rect3929"
           width="9.0746527"
           height="9.0746527"
           x="1034.6412"
           y="1224.3444" />
      </g>
    </pattern>
    <inkscape:perspective
       id="perspective4776"
       inkscape:persp3d-origin="0.5 : 0.33333333 : 1"
       inkscape:vp_z="1 : 0.5 : 1"
       inkscape:vp_y="0 : 1000 : 0"
       inkscape:vp_x="0 : 0.5 : 1"
       sodipodi:type="inkscape:persp3d" />
    <inkscape:perspective
       id="perspective4776-4"
       inkscape:persp3d-origin="0.5 : 0.33333333 : 1"
       inkscape:vp_z="1 : 0.5 : 1"
       inkscape:vp_y="0 : 1000 : 0"
       inkscape:vp_x="0 : 0.5 : 1"
       sodipodi:type="inkscape:persp3d" />
    <inkscape:perspective
       id="perspective4776-1"
       inkscape:persp3d-origin="0.5 : 0.33333333 : 1"
       inkscape:vp_z="1 : 0.5 : 1"
       inkscape:vp_y="0 : 1000 : 0"
       inkscape:vp_x="0 : 0.5 : 1"
       sodipodi:type="inkscape:persp3d" />
    <inkscape:perspective
       id="perspective4776-14"
       inkscape:persp3d-origin="0.5 : 0.33333333 : 1"
       inkscape:vp_z="1 : 0.5 : 1"
       inkscape:vp_y="0 : 1000 : 0"
       inkscape:vp_x="0 : 0.5 : 1"
       sodipodi:type="inkscape:persp3d" />
    <inkscape:perspective
       id="perspective4776-16"
       inkscape:persp3d-origin="0.5 : 0.33333333 : 1"
       inkscape:vp_z="1 : 0.5 : 1"
       inkscape:vp_y="0 : 1000 : 0"
       inkscape:vp_x="0 : 0.5 : 1"
       sodipodi:type="inkscape:persp3d" />
    <inkscape:perspective
       id="perspective4776-8"
       inkscape:persp3d-origin="0.5 : 0.33333333 : 1"
       inkscape:vp_z="1 : 0.5 : 1"
       inkscape:vp_y="0 : 1000 : 0"
       inkscape:vp_x="0 : 0.5 : 1"
       sodipodi:type="inkscape:persp3d" />
    <inkscape:perspective
       id="perspective4776-43"
       inkscape:persp3d-origin="0.5 : 0.33333333 : 1"
       inkscape:vp_z="1 : 0.5 : 1"
       inkscape:vp_y="0 : 1000 : 0"
       inkscape:vp_x="0 : 0.5 : 1"
       sodipodi:type="inkscape:persp3d" />
    <inkscape:perspective
       id="perspective4776-87"
       inkscape:persp3d-origin="0.5 : 0.33333333 : 1"
       inkscape:vp_z="1 : 0.5 : 1"
       inkscape:vp_y="0 : 1000 : 0"
       inkscape:vp_x="0 : 0.5 : 1"
       sodipodi:type="inkscape:persp3d" />
    <inkscape:perspective
       id="perspective4938"
       inkscape:persp3d-origin="0.5 : 0.33333333 : 1"
       inkscape:vp_z="1 : 0.5 : 1"
       inkscape:vp_y="0 : 1000 : 0"
       inkscape:vp_x="0 : 0.5 : 1"
       sodipodi:type="inkscape:persp3d" />
    <inkscape:perspective
       id="perspective4938-2"
       inkscape:persp3d-origin="0.5 : 0.33333333 : 1"
       inkscape:vp_z="1 : 0.5 : 1"
       inkscape:vp_y="0 : 1000 : 0"
       inkscape:vp_x="0 : 0.5 : 1"
       sodipodi:type="inkscape:persp3d" />
    <inkscape:perspective
       id="perspective4938-8"
       inkscape:persp3d-origin="0.5 : 0.33333333 : 1"
       inkscape:vp_z="1 : 0.5 : 1"
       inkscape:vp_y="0 : 1000 : 0"
       inkscape:vp_x="0 : 0.5 : 1"
       sodipodi:type="inkscape:persp3d" />
    <inkscape:perspective
       id="perspective4938-0"
       inkscape:persp3d-origin="0.5 : 0.33333333 : 1"
       inkscape:vp_z="1 : 0.5 : 1"
       inkscape:vp_y="0 : 1000 : 0"
       inkscape:vp_x="0 : 0.5 : 1"
       sodipodi:type="inkscape:persp3d" />
    <inkscape:perspective
       id="perspective4938-9"
       inkscape:persp3d-origin="0.5 : 0.33333333 : 1"
       inkscape:vp_z="1 : 0.5 : 1"
       inkscape:vp_y="0 : 1000 : 0"
       inkscape:vp_x="0 : 0.5 : 1"
       sodipodi:type="inkscape:persp3d" />
    <inkscape:perspective
       id="perspective5029"
       inkscape:persp3d-origin="0.5 : 0.33333333 : 1"
       inkscape:vp_z="1 : 0.5 : 1"
       inkscape:vp_y="0 : 1000 : 0"
       inkscape:vp_x="0 : 0.5 : 1"
       sodipodi:type="inkscape:persp3d" />
    <clipPath
       clipPathUnits="userSpaceOnUse"
       id="clipPath3494-0">
      <rect
         style="fill:#006a00;fill-opacity:1;fill-rule:nonzero;stroke:none"
         id="rect3496-6"
         width="2168.1926"
         height="1468.4177"
         x="-4232.8457"
         y="-2372.1296"
         transform="matrix(-0.9472965,-0.3203582,0.9519016,-0.3064038,0,0)" />
    </clipPath>
    <inkscape:perspective
       id="perspective5366"
       inkscape:persp3d-origin="0.5 : 0.33333333 : 1"
       inkscape:vp_z="1 : 0.5 : 1"
       inkscape:vp_y="0 : 1000 : 0"
       inkscape:vp_x="0 : 0.5 : 1"
       sodipodi:type="inkscape:persp3d" />
    <inkscape:perspective
       id="perspective6249"
       inkscape:persp3d-origin="0.5 : 0.33333333 : 1"
       inkscape:vp_z="1 : 0.5 : 1"
       inkscape:vp_y="0 : 1000 : 0"
       inkscape:vp_x="0 : 0.5 : 1"
       sodipodi:type="inkscape:persp3d" />
    <clipPath
       clipPathUnits="userSpaceOnUse"
       id="clipPath3494-1">
      <rect
         style="fill:#006a00;fill-opacity:1;fill-rule:nonzero;stroke:none"
         id="rect3496-8"
         width="2168.1926"
         height="1468.4177"
         x="-4232.8457"
         y="-2372.1296"
         transform="matrix(-0.9472965,-0.3203582,0.9519016,-0.3064038,0,0)" />
    </clipPath>
    <filter
       inkscape:collect="always"
       id="filter6455"
       x="-0.054447147"
       width="1.1088943"
       y="-0.30322686"
       height="1.6064537"
       color-interpolation-filters="sRGB">
      <feGaussianBlur
         inkscape:collect="always"
         stdDeviation="2.49598"
         id="feGaussianBlur6457" />
    </filter>
    <inkscape:perspective
       id="perspective3814"
       inkscape:persp3d-origin="0.5 : 0.33333333 : 1"
       inkscape:vp_z="1 : 0.5 : 1"
       inkscape:vp_y="0 : 1000 : 0"
       inkscape:vp_x="0 : 0.5 : 1"
       sodipodi:type="inkscape:persp3d" />
    <inkscape:perspective
       id="perspective3854"
       inkscape:persp3d-origin="0.5 : 0.33333333 : 1"
       inkscape:vp_z="1 : 0.5 : 1"
       inkscape:vp_y="0 : 1000 : 0"
       inkscape:vp_x="0 : 0.5 : 1"
       sodipodi:type="inkscape:persp3d" />
    <clipPath
       clipPathUnits="userSpaceOnUse"
       id="clipPath3494-8">
      <rect
         style="fill:#006a00;fill-opacity:1;fill-rule:nonzero;stroke:none"
         id="rect3496-2"
         width="2168.1926"
         height="1468.4177"
         x="-4232.8457"
         y="-2372.1296"
         transform="matrix(-0.9472965,-0.3203582,0.9519016,-0.3064038,0,0)" />
    </clipPath>
    <inkscape:perspective
       id="perspective3903"
       inkscape:persp3d-origin="0.5 : 0.33333333 : 1"
       inkscape:vp_z="1 : 0.5 : 1"
       inkscape:vp_y="0 : 1000 : 0"
       inkscape:vp_x="0 : 0.5 : 1"
       sodipodi:type="inkscape:persp3d" />
    <inkscape:perspective
       id="perspective3903-2"
       inkscape:persp3d-origin="0.5 : 0.33333333 : 1"
       inkscape:vp_z="1 : 0.5 : 1"
       inkscape:vp_y="0 : 1000 : 0"
       inkscape:vp_x="0 : 0.5 : 1"
       sodipodi:type="inkscape:persp3d" />
    <inkscape:perspective
       id="perspective3903-1"
       inkscape:persp3d-origin="0.5 : 0.33333333 : 1"
       inkscape:vp_z="1 : 0.5 : 1"
       inkscape:vp_y="0 : 1000 : 0"
       inkscape:vp_x="0 : 0.5 : 1"
       sodipodi:type="inkscape:persp3d" />
    <inkscape:perspective
       id="perspective3903-9"
       inkscape:persp3d-origin="0.5 : 0.33333333 : 1"
       inkscape:vp_z="1 : 0.5 : 1"
       inkscape:vp_y="0 : 1000 : 0"
       inkscape:vp_x="0 : 0.5 : 1"
       sodipodi:type="inkscape:persp3d" />
    <inkscape:perspective
       id="perspective3903-8"
       inkscape:persp3d-origin="0.5 : 0.33333333 : 1"
       inkscape:vp_z="1 : 0.5 : 1"
       inkscape:vp_y="0 : 1000 : 0"
       inkscape:vp_x="0 : 0.5 : 1"
       sodipodi:type="inkscape:persp3d" />
    <inkscape:perspective
       id="perspective3903-5"
       inkscape:persp3d-origin="0.5 : 0.33333333 : 1"
       inkscape:vp_z="1 : 0.5 : 1"
       inkscape:vp_y="0 : 1000 : 0"
       inkscape:vp_x="0 : 0.5 : 1"
       sodipodi:type="inkscape:persp3d" />
    <inkscape:perspective
       id="perspective3903-0"
       inkscape:persp3d-origin="0.5 : 0.33333333 : 1"
       inkscape:vp_z="1 : 0.5 : 1"
       inkscape:vp_y="0 : 1000 : 0"
       inkscape:vp_x="0 : 0.5 : 1"
       sodipodi:type="inkscape:persp3d" />
    <inkscape:perspective
       id="perspective4083"
       inkscape:persp3d-origin="0.5 : 0.33333333 : 1"
       inkscape:vp_z="1 : 0.5 : 1"
       inkscape:vp_y="0 : 1000 : 0"
       inkscape:vp_x="0 : 0.5 : 1"
       sodipodi:type="inkscape:persp3d" />
    <inkscape:perspective
       id="perspective4083-0"
       inkscape:persp3d-origin="0.5 : 0.33333333 : 1"
       inkscape:vp_z="1 : 0.5 : 1"
       inkscape:vp_y="0 : 1000 : 0"
       inkscape:vp_x="0 : 0.5 : 1"
       sodipodi:type="inkscape:persp3d" />
    <inkscape:perspective
       id="perspective4140"
       inkscape:persp3d-origin="0.5 : 0.33333333 : 1"
       inkscape:vp_z="1 : 0.5 : 1"
       inkscape:vp_y="0 : 1000 : 0"
       inkscape:vp_x="0 : 0.5 : 1"
       sodipodi:type="inkscape:persp3d" />
    <inkscape:perspective
       id="perspective4140-7"
       inkscape:persp3d-origin="0.5 : 0.33333333 : 1"
       inkscape:vp_z="1 : 0.5 : 1"
       inkscape:vp_y="0 : 1000 : 0"
       inkscape:vp_x="0 : 0.5 : 1"
       sodipodi:type="inkscape:persp3d" />
    <inkscape:perspective
       id="perspective4215"
       inkscape:persp3d-origin="0.5 : 0.33333333 : 1"
       inkscape:vp_z="1 : 0.5 : 1"
       inkscape:vp_y="0 : 1000 : 0"
       inkscape:vp_x="0 : 0.5 : 1"
       sodipodi:type="inkscape:persp3d" />
    <inkscape:perspective
       id="perspective4215-8"
       inkscape:persp3d-origin="0.5 : 0.33333333 : 1"
       inkscape:vp_z="1 : 0.5 : 1"
       inkscape:vp_y="0 : 1000 : 0"
       inkscape:vp_x="0 : 0.5 : 1"
       sodipodi:type="inkscape:persp3d" />
    <inkscape:perspective
       id="perspective4215-7"
       inkscape:persp3d-origin="0.5 : 0.33333333 : 1"
       inkscape:vp_z="1 : 0.5 : 1"
       inkscape:vp_y="0 : 1000 : 0"
       inkscape:vp_x="0 : 0.5 : 1"
       sodipodi:type="inkscape:persp3d" />
    <inkscape:perspective
       id="perspective4265"
       inkscape:persp3d-origin="0.5 : 0.33333333 : 1"
       inkscape:vp_z="1 : 0.5 : 1"
       inkscape:vp_y="0 : 1000 : 0"
       inkscape:vp_x="0 : 0.5 : 1"
       sodipodi:type="inkscape:persp3d" />
    <inkscape:perspective
       id="perspective4265-7"
       inkscape:persp3d-origin="0.5 : 0.33333333 : 1"
       inkscape:vp_z="1 : 0.5 : 1"
       inkscape:vp_y="0 : 1000 : 0"
       inkscape:vp_x="0 : 0.5 : 1"
       sodipodi:type="inkscape:persp3d" />
    <inkscape:perspective
       id="perspective4265-5"
       inkscape:persp3d-origin="0.5 : 0.33333333 : 1"
       inkscape:vp_z="1 : 0.5 : 1"
       inkscape:vp_y="0 : 1000 : 0"
       inkscape:vp_x="0 : 0.5 : 1"
       sodipodi:type="inkscape:persp3d" />
    <inkscape:perspective
       id="perspective4393"
       inkscape:persp3d-origin="0.5 : 0.33333333 : 1"
       inkscape:vp_z="1 : 0.5 : 1"
       inkscape:vp_y="0 : 1000 : 0"
       inkscape:vp_x="0 : 0.5 : 1"
       sodipodi:type="inkscape:persp3d" />
    <inkscape:perspective
       id="perspective4393-7"
       inkscape:persp3d-origin="0.5 : 0.33333333 : 1"
       inkscape:vp_z="1 : 0.5 : 1"
       inkscape:vp_y="0 : 1000 : 0"
       inkscape:vp_x="0 : 0.5 : 1"
       sodipodi:type="inkscape:persp3d" />
    <inkscape:perspective
       id="perspective4454"
       inkscape:persp3d-origin="0.5 : 0.33333333 : 1"
       inkscape:vp_z="1 : 0.5 : 1"
       inkscape:vp_y="0 : 1000 : 0"
       inkscape:vp_x="0 : 0.5 : 1"
       sodipodi:type="inkscape:persp3d" />
    <inkscape:perspective
       id="perspective4500"
       inkscape:persp3d-origin="0.5 : 0.33333333 : 1"
       inkscape:vp_z="1 : 0.5 : 1"
       inkscape:vp_y="0 : 1000 : 0"
       inkscape:vp_x="0 : 0.5 : 1"
       sodipodi:type="inkscape:persp3d" />
    <inkscape:perspective
       id="perspective4839"
       inkscape:persp3d-origin="0.5 : 0.33333333 : 1"
       inkscape:vp_z="1 : 0.5 : 1"
       inkscape:vp_y="0 : 1000 : 0"
       inkscape:vp_x="0 : 0.5 : 1"
       sodipodi:type="inkscape:persp3d" />
    <inkscape:perspective
       id="perspective4000"
       inkscape:persp3d-origin="0.5 : 0.33333333 : 1"
       inkscape:vp_z="1 : 0.5 : 1"
       inkscape:vp_y="0 : 1000 : 0"
       inkscape:vp_x="0 : 0.5 : 1"
       sodipodi:type="inkscape:persp3d" />
    <inkscape:perspective
       id="perspective4000-5"
       inkscape:persp3d-origin="0.5 : 0.33333333 : 1"
       inkscape:vp_z="1 : 0.5 : 1"
       inkscape:vp_y="0 : 1000 : 0"
       inkscape:vp_x="0 : 0.5 : 1"
       sodipodi:type="inkscape:persp3d" />
    <inkscape:perspective
       id="perspective4000-52"
       inkscape:persp3d-origin="0.5 : 0.33333333 : 1"
       inkscape:vp_z="1 : 0.5 : 1"
       inkscape:vp_y="0 : 1000 : 0"
       inkscape:vp_x="0 : 0.5 : 1"
       sodipodi:type="inkscape:persp3d" />
    <inkscape:perspective
       id="perspective4000-3"
       inkscape:persp3d-origin="0.5 : 0.33333333 : 1"
       inkscape:vp_z="1 : 0.5 : 1"
       inkscape:vp_y="0 : 1000 : 0"
       inkscape:vp_x="0 : 0.5 : 1"
       sodipodi:type="inkscape:persp3d" />
    <inkscape:perspective
       id="perspective4000-57"
       inkscape:persp3d-origin="0.5 : 0.33333333 : 1"
       inkscape:vp_z="1 : 0.5 : 1"
       inkscape:vp_y="0 : 1000 : 0"
       inkscape:vp_x="0 : 0.5 : 1"
       sodipodi:type="inkscape:persp3d" />
    <inkscape:perspective
       id="perspective4842"
       inkscape:persp3d-origin="0.5 : 0.33333333 : 1"
       inkscape:vp_z="1 : 0.5 : 1"
       inkscape:vp_y="0 : 1000 : 0"
       inkscape:vp_x="0 : 0.5 : 1"
       sodipodi:type="inkscape:persp3d" />
  </defs>
  <sodipodi:namedview
     id="base"
     pagecolor="#ffffff"
     bordercolor="#ffffff"
     borderopacity="0.0"
     inkscape:pageopacity="0.0"
     inkscape:pageshadow="0"
     inkscape:zoom="0.8330538"
     inkscape:cx="716.64039"
     inkscape:cy="469.35744"
     inkscape:document-units="px"
     inkscape:current-layer="layer1"
     showgrid="false"
     inkscape:window-width="1920"
     inkscape:window-height="1048"
     inkscape:window-x="0"
     inkscape:window-y="0"
     inkscape:window-maximized="1"
     showborder="false"
     inkscape:showpageshadow="false"
     showguides="true"
     inkscape:guide-bbox="true"
     inkscape:pagecheckerboard="0"
     inkscape:deskcolor="#d1d1d1" />
  <metadata
     id="metadata2821">
    <rdf:RDF>
      <cc:Work
         rdf:about="">
        <dc:format>image/svg+xml</dc:format>
        <dc:type
           rdf:resource="http://purl.org/dc/dcmitype/StillImage" />
        <dc:title>Track map of Autódromo José Carlos Pace (AKA Interlagos)</dc:title>
        <dc:date>October 17, 2009</dc:date>
        <dc:creator>
          <cc:Agent>
            <dc:title>Will Pittenger</dc:title>
          </cc:Agent>
        </dc:creator>
        <dc:publisher>
          <cc:Agent>
            <dc:title>Will Pittenger</dc:title>
          </cc:Agent>
        </dc:publisher>
        <dc:subject>
          <rdf:Bag>
            <rdf:li>Interlagos</rdf:li>
            <rdf:li>José Carlos Pace</rdf:li>
            <rdf:li>Formula 1</rdf:li>
            <rdf:li>F1</rdf:li>
            <rdf:li>Brazil</rdf:li>
            <rdf:li>Senna 'S'</rdf:li>
            <rdf:li>Curva do Sol</rdf:li>
            <rdf:li>Reta Oposta</rdf:li>
            <rdf:li>Descida do Lago</rdf:li>
            <rdf:li>Ferradura</rdf:li>
            <rdf:li>Curva do Laranjinha</rdf:li>
            <rdf:li>Pinheirinho</rdf:li>
            <rdf:li>Bico de Pato</rdf:li>
            <rdf:li>Merhulho</rdf:li>
            <rdf:li>Junção</rdf:li>
            <rdf:li>Subida dos Boxes</rdf:li>
            <rdf:li>Arquibancadas</rdf:li>
            <rdf:li>racing</rdf:li>
            <rdf:li>open wheel racing</rdf:li>
          </rdf:Bag>
        </dc:subject>
        <dc:description>Created in Inkscape</dc:description>
        <cc:license
           rdf:resource="http://creativecommons.org/licenses/by-sa/3.0/" />
      </cc:Work>
      <cc:License
         rdf:about="http://creativecommons.org/licenses/by-sa/3.0/">
        <cc:permits
           rdf:resource="http://creativecommons.org/ns#Reproduction" />
        <cc:permits
           rdf:resource="http://creativecommons.org/ns#Distribution" />
        <cc:requires
           rdf:resource="http://creativecommons.org/ns#Notice" />
        <cc:requires
           rdf:resource="http://creativecommons.org/ns#Attribution" />
        <cc:permits
           rdf:resource="http://creativecommons.org/ns#DerivativeWorks" />
        <cc:requires
           rdf:resource="http://creativecommons.org/ns#ShareAlike" />
      </cc:License>
    </rdf:RDF>
  </metadata>
  <g
     inkscape:label="Layer 1"
     inkscape:groupmode="layer"
     id="layer1"
     transform="translate(1376.5248,-10.338528)">
    <text
       xml:space="preserve"
       style="color:#000000;font-style:normal;font-variant:normal;font-weight:normal;font-stretch:normal;line-height:0%;font-family:'Times New Roman';-inkscape-font-specification:'Times New Roman';text-align:center;writing-mode:lr-tb;text-anchor:middle;display:inline;overflow:visible;fill:#000000;fill-opacity:1;fill-rule:nonzero;stroke:#ffffff;stroke-width:5;stroke-miterlimit:4;stroke-dasharray:none;stroke-opacity:1;filter:url(#filter6455);enable-background:accumulate"
       x="-415.86166"
       y="223.01346"
       id="use6299"
       transform="rotate(12.457466)"><tspan
         sodipodi:role="line"
         id="tspan10"
         x="-415.86166"
         y="223.01346"
         style="font-size:32px;line-height:1">Reta Oposta</tspan></text>
    <use
       x="0"
       y="0"
       xlink:href="#path2842"
       id="use4741"
       style="stroke:white;stroke-width:7;stroke-miterlimit:4;stroke-opacity:1;stroke-dasharray:none"
       width="744.09448"
       height="1052.3622" />
    <use
       x="0"
       y="0"
       xlink:href="#path2840"
       id="use4739"
       style="stroke:white;stroke-width:17;stroke-miterlimit:4;stroke-opacity:1;stroke-dasharray:none"
       width="744.09448"
       height="1052.3622" />
    <path
       style="fill:none"
       d="m -325.53064,789.63076 c 91.43849,-25.57334 183.69198,-49.02808 274.265972,-76.897 14.945786,-4.5987 23.83107,-11.14491 36.855912,-19.59963 11.3258755,-7.35188 18.7430017,-16.11561 25.774482,-26.91395 4.930275,-7.57149 6.488408,-19.34294 5.126466,-28.19556 C 15.2909,630.21622 9.6202119,622.07703 3.6760257,616.23713 -14.730505,598.15352 -35.022623,585.25939 -51.57564,566.25408 c -6.516083,-7.48143 -4.392857,-14.75225 -3.986998,-24.49286 0.448553,-10.76526 6.834531,-21.72649 11.534551,-32.04042 10.679381,-23.43531 28.099525,-51.01509 35.0567702,-75.09786 4.1500995,-14.36573 0.2667615,-30.87561 -1.2816172,-46.1382 -1.44206,-14.21459 -2.794842,-29.03644 -7.6897,-42.29335 -5.358075,-14.51146 -13.837012,-28.42253 -23.0691,-41.01174 -14.264217,-19.45121 -28.464143,-40.7032 -47.419817,-55.10951 -23.764879,-18.06131 -54.088219,-32.10135 -83.460569,-39.12152 -102.09665,-24.40173 -205.8519,-48.89064 -309.99575,-72.37914 -153.46111,-34.61146 -304.64893,-75.654289 -458.28792,-107.811285 -11.68956,-2.446653 -24.98687,-2.196592 -35.88526,1.281617 -9.18028,2.929875 -21.00564,12.509014 -26.16325,20.661354 -8.0858,12.780733 -12.3198,29.419232 -15.3794,44.856584 -6.3389,31.98247 -15.2524,64.39137 -17.8004,96.94975 -1.2968,16.57026 2.4775,34.61424 6.2659,50.43617 3.4741,14.50966 12.2536,28.24037 20.5059,41.01173 9.69037,14.997 18.9315,31.70779 33.322,42.29335 111.63513,82.11805 230.89022,155.84563 344.75489,235.81747 13.8698,9.74133 29.3035,19.83316 38.4485,33.32204 7.94322,11.71625 10.61139,27.86209 12.81617,42.29335 2.49448,16.32754 4.72595,34.03031 1.28161,49.98305 -4.67257,21.64135 -14.39923,43.70294 -25.63233,62.79922 -5.85512,9.9537 -15.23096,19.42375 -25.63233,24.35071 -22.06625,10.45244 -47.43799,16.2411 -71.77054,21.78749 -33.7674,7.69698 -68.40156,14.98927 -102.52933,17.94263 -10.3016,0.89149 -17.84339,0.96187 -26.68072,-3.68936 -5.13761,-2.70401 -10.0105,-7.35804 -13.74709,-12.42736 -1.64287,-2.22883 -3.06608,-4.53794 -4.19555,-6.79689 -2.70971,-5.41943 -2.82031,-13.26179 -1.28161,-19.22425 1.87895,-7.28092 7.36846,-13.86616 11.53455,-20.50587 9.50448,-15.14777 22.54036,-28.84853 29.47718,-44.85658 4.17052,-9.62428 2.07526,-24.89559 -0.23323,-34.75914 -2.39077,-10.21511 -10.52703,-20.12565 -17.94263,-28.19557 -7.10939,-7.73669 -19.21792,-13.00224 -28.80418,-16.05241 -9.21079,-2.93071 -21.35282,-1.91641 -30.7588,1.28162 -11.9543,4.06446 -16.50721,12.71675 -26.07211,21.41211 -18.63067,16.93697 -33.56323,38.19797 -51.26467,56.39113 -13.05735,13.42005 -28.9944,25.62293 -45.08978,34.37042 -23.2075,12.61279 -50.8979,18.49532 -76.897,25.63233 -17.5759,4.82475 -32.5874,8.79682 -48.8436,6.17486 -10.2306,-1.65009 -21.0363,-13.87684 -25.6324,-23.0691 -3.0936,-6.18714 0.2539,-14.46646 3.9227,-20.8035 5.7297,-9.89678 17.3657,-19.08101 26.0854,-27.44482 33.1464,-31.79351 64.9128,-56.27385 93.1693,-91.21467 11.4736,-14.18782 15.5265,-34.55063 19.2242,-52.54629 2.7103,-13.19035 2.7751,-27.83005 0,-41.01173 -4.0602,-19.28594 -13.3905,-38.33784 -25.037,-53.67241 -13.9858,-18.41467 -36.1722,-31.97968 -56.3912,-44.85659 -56.2508,-35.82453 -114.7492,-66.59977 -173.4713,-97.62276 -9.2036,-4.86227 -21.9649,-8.88841 -30.7588,-6.40808 -7.8671,2.21894 -15.3072,12.11218 -19.2243,20.50587 -17.016,36.46289 -26.7969,69.01252 -38.5906,107.7202 -4.8673,15.97463 -8.3303,33.47484 -6.4081,49.98305 5.3403,45.8638 17.8904,92.17791 32.2737,136.22675 12.9579,39.68345 33.9181,73.15602 55.6403,108.62644 12.027,19.6391 28.8393,38.149 47.4198,51.26467 17.7319,12.51667 39.1657,21.39022 60.6114,26.9917 93.0454,24.30291 184.80795,42.53905 279.23695,64.08083 33.95948,7.74706 66.87723,17.1545 101.54535,17.80049 34.11197,0.63563 69.2425,-1.08518 102.52934,-8.97132 121.78878,-28.85354 241.81485,-67.43949 362.69752,-101.24772 z"
       id="path2840"
       sodipodi:nodetypes="csssssssssssssssssssssssssssssssssssssssssssssssssssssssssssssssssss" />
    <path
       style="fill:none"
       d="m -1052.7771,842.91172 c 35.8351,5.35703 107.91679,20.03565 138.9844,27.22766 31.54763,7.30313 62.26835,16.36339 94.30877,16.36339 32.04042,0 66.38495,-1.98955 97.93373,-9.11347 74.3982,-16.79959 148.18224,-40.27665 221.71969,-60.84459 149.46386,-41.80407 299.99056,-82.41813 447.284226,-129.44328 14.617245,-4.66672 23.237061,-8.09962 31.651702,-18.83554 3.97432,-5.07068 2.400771,-15.72688 -1.281616,-21.78748 -16.82348,-27.68864 -37.099703,-47.82616 -52.079827,-76.2884 -6.380155,-12.12229 -7.535992,-29.37436 -3.84485,-42.29335 4.85297,-16.98539 24.307776,-39.75436 30.836544,-56.93533 9.705043,-25.53959 12.18726,-53.6861 13.333691,-80.74186 0.989597,-23.35449 -4.830296,-50.768 -15.534886,-70.94203 -11.510099,-21.69211 -33.647111,-38.61522 -54.281024,-53.29704 -23.79547,-16.93139 -52.2321,-26.28483 -79.91335,-36.55828 -55.19663,-20.48535 -118.19473,-38.10863 -175.06397,-53.90564 -58.47626,-16.24341 -115.61903,-28.56401 -166.43065,-43.29271"
       id="path2842"
       sodipodi:nodetypes="cssssssssssssssss" />
    <use
       x="0"
       y="0"
       xlink:href="#path2840"
       id="use4737"
       style="stroke:black;stroke-width:15;stroke-miterlimit:4;stroke-opacity:1;stroke-dasharray:none"
       width="744.09448"
       height="1052.3622" />
    <use
       x="0"
       y="0"
       xlink:href="#path2842"
       id="use4743"
       style="stroke:black;stroke-width:5;stroke-miterlimit:4;stroke-opacity:1;stroke-dasharray:none"
       width="744.09448"
       height="1052.3622" />
    <path
       style="fill:none;stroke:red;stroke-width:5;stroke-linecap:round;stroke-miterlimit:4;stroke-opacity:1;stroke-dasharray:5, 10;stroke-dashoffset:0"
       d="m -227.86898,762.88131 c 59.12054,-16.04818 118.21146,-32.18052 176.604312,-50.14755 14.945785,-4.5987 23.83107,-11.14491 36.855912,-19.59963 11.3258755,-7.35188 18.7430017,-16.11561 25.774482,-26.91395 4.930275,-7.57149 6.488408,-19.34294 5.126466,-28.19556 C 15.2909,630.21622 9.6202119,622.07703 3.6760257,616.23713 -14.730505,598.15352 -35.022623,585.25939 -51.57564,566.25408 c -6.516083,-7.48143 -4.392857,-14.75225 -3.986998,-24.49286 0.448553,-10.76526 6.834531,-21.72649 11.534551,-32.04042 10.679381,-23.43531 28.099525,-51.01509 35.0567702,-75.09786 4.1500995,-14.36573 0.2667615,-30.87561 -1.2816172,-46.1382 -1.44206,-14.21459 -2.794842,-29.03644 -7.6897,-42.29335 -5.358075,-14.51146 -13.837012,-28.42253 -23.0691,-41.01174 -14.264217,-19.45121 -28.464143,-40.7032 -47.419817,-55.10951 -23.764879,-18.06131 -54.088219,-32.10135 -83.460569,-39.12152 -102.09665,-24.40173 -205.8519,-48.89064 -309.99575,-72.37914 -87.88328,-19.82111 -175.02102,-41.751416 -262.30054,-62.914178"
       id="path4755" />
    <path
       style="fill:none;stroke:aqua;stroke-width:5;stroke-linecap:round;stroke-miterlimit:4;stroke-opacity:1;stroke-dasharray:5, 10;stroke-dashoffset:0"
       d="m -1113.9309,411.33792 c -51.6478,-31.89943 -105.017,-59.98671 -158.5723,-88.28004 -9.2036,-4.86228 -21.9649,-8.88841 -30.7588,-6.40808 -7.8671,2.21894 -15.3072,12.11218 -19.2243,20.50587 -17.016,36.46289 -26.7969,69.01252 -38.5906,107.7202 -4.8673,15.97463 -8.3303,33.47484 -6.4081,49.98305 5.3403,45.8638 17.8904,92.17791 32.2737,136.22675 12.9579,39.68345 33.9181,73.15602 55.6403,108.62644 12.027,19.6391 28.8393,38.149 47.4198,51.26467 17.7319,12.51667 39.1657,21.39022 60.6114,26.9917 93.0454,24.30291 184.80795,42.53905 279.23695,64.08083 33.95948,7.74706 66.87723,17.1545 101.54535,17.80049 34.11197,0.63563 69.2425,-1.08518 102.52934,-8.97132 121.78878,-28.85354 241.81485,-67.43949 362.69752,-101.24772 32.4883,-9.08626 65.07948,-17.90508 97.66166,-26.74945"
       id="path4751" />
    <path
       style="fill:none;stroke:yellow;stroke-width:5;stroke-linecap:round;stroke-miterlimit:4;stroke-opacity:1;stroke-dasharray:5, 10;stroke-dashoffset:0"
       d="m -744.18841,75.655302 c -65.1273,-15.79149 -130.33354,-31.155605 -195.98738,-44.897107 -11.68956,-2.446652 -24.98687,-2.196592 -35.88526,1.281617 -9.18028,2.929875 -21.00564,12.509014 -26.16325,20.661354 -8.0858,12.780733 -12.3198,29.419232 -15.3794,44.856584 -6.3389,31.98247 -15.2524,64.39137 -17.8004,96.94975 -1.2968,16.57026 2.4775,34.61424 6.2659,50.43617 3.4741,14.50966 12.2536,28.24037 20.5059,41.01173 9.69037,14.997 18.9315,31.70779 33.322,42.29335 111.63513,82.11805 230.89022,155.84563 344.75489,235.81747 13.8698,9.74133 29.3035,19.83316 38.4485,33.32204 7.94322,11.71625 10.61139,27.86209 12.81617,42.29335 2.49448,16.32754 4.72595,34.03031 1.28161,49.98305 -4.67257,21.64135 -14.39923,43.70294 -25.63233,62.79922 -5.85512,9.9537 -15.23096,19.42375 -25.63233,24.35071 -22.06625,10.45244 -47.43799,16.2411 -71.77054,21.78749 -33.7674,7.69698 -68.40156,14.98927 -102.52933,17.94263 -10.3016,0.89149 -17.84339,0.96187 -26.68072,-3.68936 -5.13761,-2.70401 -10.0105,-7.35804 -13.74709,-12.42736 -1.64287,-2.22883 -3.06608,-4.53794 -4.19555,-6.79689 -2.70971,-5.41943 -2.82031,-13.26179 -1.28161,-19.22425 1.87895,-7.28092 7.36846,-13.86616 11.53455,-20.50587 9.50448,-15.14777 22.54036,-28.84853 29.47718,-44.85658 4.17052,-9.62428 2.07526,-24.89559 -0.23323,-34.75914 -2.39077,-10.21511 -10.52703,-20.12565 -17.94263,-28.19557 -7.10939,-7.73669 -19.21792,-13.00224 -28.80418,-16.05241 -9.21079,-2.93071 -21.35282,-1.91641 -30.7588,1.28162 -11.9543,4.06446 -16.50721,12.71675 -26.07211,21.41211 -18.63067,16.93697 -33.56323,38.19797 -51.26467,56.39113 -13.05735,13.42005 -28.9944,25.62293 -45.08978,34.37042 -23.2075,12.61279 -50.8979,18.49532 -76.897,25.63233 -17.5759,4.82475 -32.5874,8.79682 -48.8436,6.17486 -10.2306,-1.65009 -21.0363,-13.87684 -25.6324,-23.0691 -3.0936,-6.18714 0.2539,-14.46646 3.9227,-20.8035 5.7297,-9.89678 17.3657,-19.08101 26.0854,-27.44482 33.1464,-31.79351 64.9128,-56.27385 93.1693,-91.21467 11.4736,-14.18782 15.5265,-34.55063 19.2242,-52.54629 2.7103,-13.19035 2.7751,-27.83005 0,-41.01173 -4.0602,-19.28594 -13.3905,-38.33784 -25.037,-53.67241 -13.9858,-18.41467 -36.3334,-31.73015 -56.3912,-44.85659 -3.8817,-2.54033 -9.9162,-6.26517 -14.899,-9.34272"
       id="path4747"
       sodipodi:nodetypes="csssssssssssssssssssssssssssssssssssssssc" />
    <path
       style="fill:none;stroke:none"
       d="m -924.08363,635.59582 c 44.14719,-41.82046 106.37821,-26.88863 130.02182,30.18364"
       id="path6224"
       sodipodi:nodetypes="cc" />
    <path
       style="fill:none;stroke:none"
       d="m -1322.2754,724.98581 c 31.0796,73.99169 83.7081,109.59771 170.6536,121.89546"
       id="path6292"
       sodipodi:nodetypes="cc" />
    <g
       style="display:inline"
       transform="matrix(1.1501506,0.58109265,0.58109265,-1.1501506,-2367.794,875.03658)"
       id="g4801">
      <path
         clip-path="none"
         transform="matrix(-0.358939,0.3679125,-1.1151124,-1.0879142,3617.8586,1699.8985)"
         d="m 1695.937,1398.5206 -24.4812,0 12.2406,-21.2013 12.2406,21.2013 z"
         inkscape:randomized="0"
         inkscape:rounded="0"
         inkscape:flatsided="true"
         sodipodi:arg2="1.5707963"
         sodipodi:arg1="0.52359878"
         sodipodi:r2="7.0671172"
         sodipodi:r1="14.134234"
         sodipodi:cy="1391.4535"
         sodipodi:cx="1683.6964"
         sodipodi:sides="3"
         id="path3463"
         style="fill:red;fill-opacity:1;stroke:white;stroke-width:0.867217;stroke-linecap:round;stroke-linejoin:miter;stroke-miterlimit:4;stroke-opacity:1;stroke-dasharray:none;stroke-dashoffset:0;display:inline"
         sodipodi:type="star" />
      <rect
         clip-path="none"
         ry="0"
         transform="matrix(-0.7183395,-0.6956928,0.6956928,-0.7183395,0,0)"
         y="376.01733"
         x="-1620.8837"
         height="53.588943"
         width="13.041035"
         id="rect3457"
         style="fill:url(#pattern4264);fill-opacity:1;stroke:black;stroke-width:0.77603012;stroke-linecap:round;stroke-linejoin:round;stroke-miterlimit:4;stroke-opacity:1;stroke-dasharray:none;stroke-dashoffset:0;display:inline" />
      <rect
         style="fill:url(#pattern5622);stroke:none"
         width="0"
         height="0"
         x="1593.7246"
         y="910.57043"
         id="rect4262"
         clip-path="none" />
    </g>
  </g>
</svg>
